<svg width="87" height="77" viewBox="0 0 87 77" fill="none" xmlns="http://www.w3.org/2000/svg">
<path d="M78.0815 55.5988C77.9407 56.2778 78.0111 56.9555 77.659 57.1583C77.307 57.3624 77.2366 57.7692 76.8142 57.7692C76.3919 57.7692 60.8326 58.9899 60.8326 58.9899L63.2968 51.8702H77.659C77.659 51.8702 78.2223 54.9211 78.0815 55.5988ZM73.118 64.3459C72.3597 64.3459 71.7451 63.7088 71.7451 62.9225C71.7451 62.1363 72.3597 61.4978 73.118 61.4978C73.8763 61.4978 74.4909 62.1363 74.4909 62.9225C74.4909 63.7088 73.8763 64.3459 73.118 64.3459ZM41.9644 32.9525L30.3478 32.8165L24.9268 31.7999L29.9959 31.868L30.0663 31.325C30.0663 31.325 27.2501 30.7821 26.2644 30.7821C25.2788 30.7821 21.2658 30.7821 20.421 30.8501C19.5761 30.9181 15.2816 31.1222 14.4367 31.325C13.5918 31.5291 11.8318 31.868 11.8318 31.868L12.0429 32.2068L16.0559 31.936L19.1537 31.7999L23.1667 31.7319L28.1654 33.3215H10.5645V32.0027C10.5645 31.5291 12.395 18.3064 12.8174 16.951C13.2399 15.5943 15.1407 9.2884 15.9152 9.01759C16.6895 8.74547 18.8018 8.27187 20.069 8.27187C21.3363 8.27187 39.5004 7.72894 40.7676 7.86499C42.0349 7.99975 52.6659 7.68576 53.9331 7.84276C55.2004 7.99975 66.1832 8.81349 67.2393 9.01759C68.2953 9.22037 71.534 9.49249 71.9564 10.9839C72.3788 12.4754 74.9838 22.7139 75.1245 24.3414C75.2653 25.9689 77.0958 33.2233 76.3213 33.2914C75.547 33.3594 62.7334 33.2914 62.7334 33.2914L56.9256 31.868L59.7766 31.936V31.4611C59.7766 31.4611 50.7649 30.5113 49.4976 30.5793C48.2304 30.6473 43.3725 30.6473 42.7389 30.8501C42.1053 31.0542 40.7676 31.4611 40.7676 31.4611V31.868C40.7676 31.868 46.1183 31.5291 47.0335 31.5958C47.9487 31.6639 52.877 31.5958 52.877 31.5958L58.791 33.3215L41.9644 32.9525ZM8.80443 57.3624C8.10044 57.1583 7.678 56.8875 7.5371 56.6847C7.39633 56.4806 7.5371 53.4977 7.5371 52.6159C7.5371 51.7341 7.81877 51.1925 7.81877 51.1925L21.8291 51.4633L23.8708 58.9899C23.8708 58.9899 9.50841 57.5651 8.80443 57.3624ZM12.3598 63.9391C11.6015 63.9391 10.9869 63.3019 10.9869 62.5157C10.9869 61.7294 11.6015 61.091 12.3598 61.091C13.1179 61.091 13.7327 61.7294 13.7327 62.5157C13.7327 63.3019 13.1179 63.9391 12.3598 63.9391ZM83.7841 29.0198C83.0802 28.8157 81.9536 29.4947 81.6017 30.0364C81.2496 30.5793 80.1936 34.1731 80.1232 34.9189C80.0528 35.6646 80.4047 36.6144 80.6864 37.0213C80.9681 37.4281 80.616 37.9698 80.4047 38.1739C80.1936 38.3766 78.363 38.1739 78.363 38.1739C78.363 38.1739 78.4336 36.8172 78.363 36.2742C78.2926 35.7326 77.3774 28.2741 77.1662 27.3243C76.9551 26.3758 73.9981 11.3228 73.646 10.509C73.294 9.69527 71.4636 6.16946 69.9851 4.13509C68.5066 2.10072 65.6904 1.96597 64.7753 1.76189C63.86 1.5591 57.1012 0.813377 55.5523 0.50724C54.0034 0.202415 35.6985 -0.000366211 34.9946 -0.000366211C34.2904 -0.000366211 22.5331 1.01617 22.5331 1.01617C22.5331 1.01617 21.125 1.01616 20.2097 1.22025C19.2946 1.42303 17.3937 2.23679 16.9008 2.64365C16.408 3.05053 14.0142 6.2375 13.6622 6.84715C13.3103 7.45812 11.5501 10.9839 11.339 11.7296C11.1277 12.4754 9.01558 22.103 8.73404 23.3916C8.45237 24.6803 7.74838 30.9181 7.678 31.4611C7.60748 32.0027 6.9035 32.1388 6.34029 32.6137C5.77707 33.0886 5.35463 31.936 5.07296 31.4611C4.79142 30.9862 4.93219 30.6473 5.07296 30.2405C5.21386 29.8336 5.56579 28.2061 5.6363 27.8672C5.70669 27.5284 5.56579 23.8665 5.14347 22.782C4.72103 21.6974 2.67933 21.9002 1.27124 21.9682C-0.136862 22.0363 0.00390848 26.2397 0.00390848 28.613C0.00390848 30.9862 1.90484 30.9862 1.90484 30.9862L4.15546 31.0542C4.15546 31.0542 4.22821 31.5291 4.15782 32.1388C4.08744 32.7484 5.6363 33.1553 5.6363 33.1553L7.60748 33.2233C7.60748 33.2233 7.39633 37.0213 7.06403 38.2785C6.73159 39.5371 7.11479 48.1403 7.07711 49.0221C7.03956 49.9039 7.09438 50.8524 7.09438 50.8524C7.09438 50.8524 7.04427 54.8531 7.11479 55.9756C7.18517 57.0968 7.04427 59.2607 7.11479 60.6841C7.18517 62.1088 7.88916 65.7026 8.66366 66.9233C9.43803 68.1439 10.5645 69.2965 10.5645 69.2965C10.5645 69.2965 12.8878 69.7033 13.0286 69.5673C13.1694 69.4312 12.9582 70.0422 13.0286 70.5171C13.099 70.9907 13.9439 75.3302 14.3663 76.1479C14.7887 76.9643 18.168 76.3481 18.7312 76.1479C19.2946 75.9464 20.1393 74.4498 20.421 73.8388C20.7026 73.2291 20.421 70.1102 20.421 70.1102C20.421 70.1102 27.391 70.313 28.0246 70.313C28.6582 70.313 46.1887 70.7199 47.0335 70.6518C47.8783 70.5838 64.2119 70.381 64.2119 70.381C64.2119 70.381 64.7753 74.1096 65.0568 74.9914C65.3385 75.8732 66.4649 76.1479 66.4649 76.1479C66.4649 76.1479 69.1402 76.076 69.633 76.144C70.1259 76.212 71.1115 75.1275 71.3227 74.6526C71.534 74.1776 71.9564 71.6016 71.9564 71.6016C71.9564 71.6016 71.9564 69.8381 72.7308 69.8381C73.5053 69.8381 74.7725 69.3632 75.1949 69.0243C75.6174 68.6855 75.547 68.0078 75.6174 67.669C75.6877 67.3301 77.0255 65.6346 77.5887 64.482C78.1519 63.3294 77.9407 58.2441 78.0111 57.7012C78.0815 57.1583 78.363 56.9555 78.4336 56.4806C78.5039 56.0057 78.4336 52.752 78.2927 52.2771C78.1519 51.8022 77.8702 51.5314 78.2223 51.1245C78.5743 50.7176 78.5039 49.1582 78.5039 49.1582V38.8515C78.5039 38.8515 80.1936 38.9196 80.8272 38.8515C81.4608 38.7835 81.32 36.9532 81.32 36.9532C81.32 36.9532 82.2353 37.224 82.7985 37.2921C83.3617 37.3601 84.277 37.0213 84.629 36.6144C84.981 36.2075 85.8962 33.0886 86.1075 31.189C86.3187 29.2907 84.4883 29.2226 83.7841 29.0198Z" fill="#1D1B19"/>
<path d="M50.8561 45.9398C50.8561 50.1711 43.1946 59.5973 43.1946 59.5973C43.1946 59.5973 35.5331 50.1711 35.5331 45.9398C35.5331 43.9079 36.3403 41.9591 37.7771 40.5223C39.2139 39.0855 41.1626 38.2783 43.1946 38.2783C45.2265 38.2783 47.1753 39.0855 48.6121 40.5223C50.0489 41.9591 50.8561 43.9079 50.8561 45.9398Z" fill="#FFCC00"/>
<path d="M46.6974 45.6063C46.6974 46.2991 46.492 46.9762 46.1072 47.5522C45.7223 48.1281 45.1753 48.5771 44.5353 48.8421C43.8954 49.1072 43.1911 49.1766 42.5117 49.0415C41.8323 48.9063 41.2083 48.5727 40.7185 48.0829C40.2286 47.5931 39.8951 46.969 39.7599 46.2896C39.6248 45.6102 39.6941 44.906 39.9592 44.266C40.2243 43.6261 40.6732 43.0791 41.2492 42.6942C41.8252 42.3094 42.5023 42.1039 43.195 42.1039C43.655 42.1037 44.1106 42.1942 44.5356 42.3701C44.9606 42.5461 45.3468 42.804 45.6721 43.1293C45.9973 43.4546 46.2553 43.8408 46.4313 44.2658C46.6072 44.6908 46.6976 45.1463 46.6974 45.6063Z" fill="#1D1B19"/>
<path d="M43.1942 65.1264C44.3348 65.1264 45.2595 64.2017 45.2595 63.0611C45.2595 61.9205 44.3348 60.9958 43.1942 60.9958C42.0536 60.9958 41.1289 61.9205 41.1289 63.0611C41.1289 64.2017 42.0536 65.1264 43.1942 65.1264Z" fill="#FFCC00"/>
<path d="M16.3164 16.2476C16.4631 16.2476 16.615 16.2896 16.7722 16.3734C16.9398 16.4467 17.0655 16.5463 17.1494 16.672L20.9684 22.5498L20.1826 22.5184L24.0959 16.672C24.295 16.3891 24.5517 16.2476 24.866 16.2476C25.1174 16.2476 25.3427 16.3367 25.5418 16.5148C25.7408 16.6929 25.8404 16.9234 25.8404 17.2063V26.306C25.8404 26.5784 25.7513 26.8089 25.5732 26.9975C25.3951 27.1756 25.1594 27.2646 24.866 27.2646C24.5726 27.2646 24.3316 27.1756 24.143 26.9975C23.9649 26.8089 23.8759 26.5784 23.8759 26.306V18.9037L24.4888 19.0451L21.2827 23.9328C21.1884 24.0481 21.0679 24.1476 20.9212 24.2314C20.785 24.3153 20.6436 24.3519 20.4969 24.3414C20.3607 24.3519 20.2192 24.3153 20.0726 24.2314C19.9364 24.1476 19.8211 24.0481 19.7268 23.9328L16.725 19.1866L17.1337 18.3536V26.306C17.1337 26.5784 17.0498 26.8089 16.8822 26.9975C16.7146 27.1756 16.4945 27.2646 16.2221 27.2646C15.9602 27.2646 15.7454 27.1756 15.5778 26.9975C15.4101 26.8089 15.3263 26.5784 15.3263 26.306V17.2063C15.3263 16.9444 15.4206 16.7191 15.6092 16.5305C15.8083 16.3419 16.044 16.2476 16.3164 16.2476ZM35.2125 16.2162C35.4535 16.2162 35.6682 16.3105 35.8568 16.4991C36.0559 16.6772 36.1554 16.9077 36.1554 17.1906C36.1554 17.2849 36.1397 17.3844 36.1083 17.4892C36.0873 17.5835 36.0454 17.6778 35.9826 17.7721L32.415 22.8799L32.6979 21.7954V26.306C32.6979 26.5784 32.6036 26.8089 32.415 26.9975C32.2369 27.1756 32.0273 27.2646 31.7864 27.2646C31.5244 27.2646 31.2992 27.1756 31.1106 26.9975C30.9324 26.8089 30.8434 26.5784 30.8434 26.306V21.9212L30.9691 22.4241L27.5744 17.9136C27.4697 17.7773 27.3963 17.6464 27.3544 17.5207C27.3125 17.3949 27.2915 17.2797 27.2915 17.1749C27.2915 16.892 27.4016 16.6615 27.6216 16.4834C27.8416 16.3053 28.0669 16.2162 28.2974 16.2162C28.5907 16.2162 28.8474 16.3629 29.0675 16.6563L32.085 20.821L31.6449 20.7582L34.4267 16.6877C34.6467 16.3734 34.9086 16.2162 35.2125 16.2162ZM46.8892 16.2634C47.895 16.2634 48.6441 16.4991 49.1366 16.9706C49.629 17.4421 49.8752 18.1388 49.8752 19.0608C49.8752 19.5533 49.7548 19.9881 49.5138 20.3653C49.2728 20.732 48.9166 21.0201 48.4451 21.2297C47.9736 21.4287 47.3921 21.5283 46.7006 21.5283L46.7635 20.821C47.0883 20.821 47.4602 20.8682 47.8793 20.9625C48.2984 21.0463 48.7018 21.2035 49.0894 21.434C49.4876 21.654 49.8124 21.9683 50.0638 22.3769C50.3258 22.7751 50.4567 23.2885 50.4567 23.9171C50.4567 24.6086 50.3415 25.1744 50.111 25.6145C49.891 26.0545 49.5976 26.395 49.2309 26.636C48.8642 26.877 48.4713 27.0446 48.0522 27.1389C47.6331 27.2227 47.2297 27.2646 46.842 27.2646H42.9287C42.6563 27.2646 42.4258 27.1756 42.2372 26.9975C42.0591 26.8089 41.97 26.5784 41.97 26.306V17.222C41.97 16.9496 42.0591 16.7244 42.2372 16.5463C42.4258 16.3577 42.6563 16.2634 42.9287 16.2634H46.8892ZM46.6063 18.1179H43.8088L44.0131 17.8664V20.711L43.8245 20.5696H46.6534C46.9573 20.5696 47.2297 20.47 47.4707 20.271C47.7117 20.0719 47.8321 19.7838 47.8321 19.4066C47.8321 18.9561 47.7169 18.6313 47.4864 18.4322C47.2664 18.2226 46.973 18.1179 46.6063 18.1179ZM46.732 22.4241H43.8717L44.0131 22.2984V25.6145L43.856 25.4573H46.842C47.324 25.4573 47.7064 25.3316 47.9893 25.0801C48.2722 24.8182 48.4136 24.4305 48.4136 23.9171C48.4136 23.4456 48.3193 23.1051 48.1308 22.8956C47.9422 22.686 47.7169 22.5551 47.455 22.5027C47.193 22.4503 46.952 22.4241 46.732 22.4241ZM60.0793 16.2476C60.3517 16.2476 60.5717 16.3419 60.7394 16.5305C60.907 16.7087 60.9908 16.9339 60.9908 17.2063V22.8956C60.9908 23.7652 60.8022 24.5353 60.4251 25.2058C60.0584 25.8764 59.5502 26.4003 58.9006 26.7774C58.251 27.1546 57.4966 27.3432 56.6375 27.3432C55.7783 27.3432 55.0187 27.1546 54.3586 26.7774C53.709 26.4003 53.1956 25.8764 52.8185 25.2058C52.4517 24.5353 52.2684 23.7652 52.2684 22.8956V17.2063C52.2684 16.9339 52.3627 16.7087 52.5513 16.5305C52.7399 16.3419 52.9809 16.2476 53.2742 16.2476C53.5152 16.2476 53.73 16.3419 53.9186 16.5305C54.1177 16.7087 54.2172 16.9339 54.2172 17.2063V22.8956C54.2172 23.4194 54.3272 23.8752 54.5472 24.2629C54.7777 24.6401 55.0763 24.9334 55.443 25.143C55.8202 25.3525 56.2184 25.4573 56.6375 25.4573C57.088 25.4573 57.5071 25.3525 57.8948 25.143C58.2824 24.9334 58.5968 24.6401 58.8377 24.2629C59.0787 23.8752 59.1992 23.4194 59.1992 22.8956V17.2063C59.1992 16.9339 59.2778 16.7087 59.4349 16.5305C59.5921 16.3419 59.8069 16.2476 60.0793 16.2476ZM66.7321 27.4218C65.9987 27.4218 65.3386 27.3328 64.7519 27.1546C64.1652 26.966 63.6046 26.6412 63.0703 26.1802C62.9341 26.065 62.8293 25.934 62.756 25.7873C62.6826 25.6406 62.6459 25.494 62.6459 25.3473C62.6459 25.1063 62.7298 24.8968 62.8974 24.7186C63.0755 24.53 63.2955 24.4357 63.5575 24.4357C63.7566 24.4357 63.9347 24.4986 64.0918 24.6243C64.49 24.9491 64.8829 25.1954 65.2705 25.363C65.6687 25.5306 66.1559 25.6145 66.7321 25.6145C67.1198 25.6145 67.476 25.5568 67.8008 25.4416C68.1256 25.3158 68.3876 25.1534 68.5866 24.9544C68.7857 24.7448 68.8852 24.5091 68.8852 24.2472C68.8852 23.9328 68.7909 23.6657 68.6024 23.4456C68.4138 23.2256 68.1256 23.0423 67.738 22.8956C67.3503 22.7384 66.8579 22.6179 66.2607 22.5341C65.6949 22.4503 65.1972 22.3245 64.7676 22.1569C64.338 21.9788 63.9766 21.7588 63.6832 21.4968C63.4003 21.2244 63.1855 20.9101 63.0388 20.5539C62.8922 20.1872 62.8188 19.7785 62.8188 19.328C62.8188 18.647 62.9917 18.0655 63.3375 17.5835C63.6937 17.1016 64.1704 16.7348 64.7676 16.4834C65.3648 16.2319 66.0249 16.1062 66.7479 16.1062C67.4289 16.1062 68.0575 16.211 68.6338 16.4205C69.2205 16.6196 69.6972 16.8763 70.064 17.1906C70.3678 17.4316 70.5197 17.7092 70.5197 18.0236C70.5197 18.2541 70.4307 18.4636 70.2525 18.6522C70.0744 18.8408 69.8649 18.9351 69.6239 18.9351C69.4667 18.9351 69.3253 18.888 69.1996 18.7937C69.0319 18.647 68.8067 18.5108 68.5238 18.385C68.2409 18.2488 67.9423 18.1388 67.628 18.055C67.3136 17.9607 67.0203 17.9136 66.7479 17.9136C66.2973 17.9136 65.9149 17.9712 65.6006 18.0864C65.2967 18.2017 65.0662 18.3588 64.9091 18.5579C64.7519 18.757 64.6733 18.9875 64.6733 19.2494C64.6733 19.5637 64.7624 19.8257 64.9405 20.0352C65.1291 20.2343 65.3963 20.3967 65.742 20.5224C66.0878 20.6377 66.5016 20.7425 66.9836 20.8368C67.6122 20.952 68.1623 21.0882 68.6338 21.2454C69.1157 21.4025 69.5139 21.6068 69.8282 21.8583C70.1425 22.0993 70.3783 22.4084 70.5354 22.7856C70.6926 23.1523 70.7712 23.6028 70.7712 24.1371C70.7712 24.8182 70.5826 25.4049 70.2054 25.8973C69.8282 26.3898 69.3305 26.767 68.7124 27.0289C68.1047 27.2908 67.4446 27.4218 66.7321 27.4218Z" fill="black"/>
</svg>
