<svg width="37" height="33" viewBox="0 0 37 33" fill="none" xmlns="http://www.w3.org/2000/svg">
<path d="M33.0932 23.5644C33.0335 23.8522 33.0634 24.1394 32.9141 24.2253C32.7649 24.3118 32.7351 24.4843 32.5561 24.4843C32.3771 24.4843 25.7826 25.0016 25.7826 25.0016L26.827 21.9841H32.9141C32.9141 21.9841 33.1529 23.2772 33.0932 23.5644ZM30.9895 27.2717C30.6681 27.2717 30.4077 27.0016 30.4077 26.6684C30.4077 26.3352 30.6681 26.0646 30.9895 26.0646C31.3109 26.0646 31.5714 26.3352 31.5714 26.6684C31.5714 27.0016 31.3109 27.2717 30.9895 27.2717ZM17.7857 13.9662L12.8623 13.9086L10.5647 13.4777L12.7131 13.5066L12.743 13.2765C12.743 13.2765 11.5494 13.0464 11.1316 13.0464C10.7139 13.0464 9.01304 13.0464 8.65501 13.0752C8.29693 13.104 6.47677 13.1905 6.11869 13.2765C5.7606 13.363 5.01465 13.5066 5.01465 13.5066L5.10414 13.6502L6.80497 13.5354L8.11788 13.4777L9.81871 13.4489L11.9373 14.1226H4.47752V13.5637C4.47752 13.363 5.25336 7.75878 5.4324 7.18433C5.61144 6.60933 6.41705 3.93671 6.74531 3.82193C7.07351 3.7066 7.96873 3.50587 8.5058 3.50587C9.04293 3.50587 16.7414 3.27576 17.2785 3.33343C17.8156 3.39054 22.3213 3.25746 22.8584 3.324C23.3955 3.39054 28.0504 3.73543 28.4979 3.82193C28.9455 3.90787 30.3182 4.02321 30.4972 4.65532C30.6762 5.28743 31.7803 9.62684 31.8399 10.3166C31.8996 11.0064 32.6754 14.081 32.3472 14.1099C32.019 14.1387 26.5882 14.1099 26.5882 14.1099L24.1267 13.5066L25.335 13.5354V13.3341C25.335 13.3341 21.5156 12.9316 20.9785 12.9604C20.4414 12.9892 18.3825 12.9892 18.114 13.0752C17.8454 13.1617 17.2785 13.3341 17.2785 13.3341V13.5066C17.2785 13.5066 19.5463 13.363 19.9341 13.3912C20.3221 13.4201 22.4108 13.3912 22.4108 13.3912L24.9173 14.1226L17.7857 13.9662ZM3.73157 24.3118C3.4332 24.2253 3.25416 24.1106 3.19444 24.0246C3.13478 23.9381 3.19444 22.6739 3.19444 22.3002C3.19444 21.9264 3.31382 21.6969 3.31382 21.6969L9.25181 21.8117L10.1171 25.0016C10.1171 25.0016 4.02994 24.3978 3.73157 24.3118ZM5.23844 27.0992C4.91706 27.0992 4.65656 26.8292 4.65656 26.496C4.65656 26.1627 4.91706 25.8921 5.23844 25.8921C5.55976 25.8921 5.82032 26.1627 5.82032 26.496C5.82032 26.8292 5.55976 27.0992 5.23844 27.0992ZM35.5101 12.2995C35.2118 12.213 34.7343 12.5007 34.5851 12.7303C34.4359 12.9604 33.9884 14.4836 33.9585 14.7996C33.9287 15.1157 34.0778 15.5183 34.1972 15.6907C34.3166 15.8631 34.1674 16.0927 34.0778 16.1792C33.9884 16.2651 33.2125 16.1792 33.2125 16.1792C33.2125 16.1792 33.2424 15.6042 33.2125 15.3741C33.1827 15.1445 32.7948 11.9834 32.7053 11.5808C32.6158 11.1788 31.3625 4.79893 31.2133 4.45404C31.0641 4.10915 30.2883 2.61481 29.6617 1.75259C29.0351 0.890362 27.8415 0.833253 27.4536 0.746753C27.0657 0.660808 24.2011 0.344749 23.5447 0.214999C22.8882 0.0858041 15.1301 -0.00014009 14.8317 -0.00014009C14.5333 -0.00014009 9.55017 0.430696 9.55017 0.430696C9.55017 0.430696 8.95338 0.430694 8.56546 0.517194C8.1776 0.603139 7.37193 0.948028 7.16306 1.12047C6.95418 1.29292 5.93964 2.64365 5.79043 2.90204C5.64127 3.16098 4.89527 4.65532 4.80578 4.97138C4.71623 5.28743 3.82106 9.3679 3.70174 9.91406C3.58236 10.4602 3.28399 13.104 3.25416 13.3341C3.22427 13.5637 2.9259 13.6214 2.6872 13.8226C2.44849 14.0239 2.26945 13.5354 2.15007 13.3341C2.03074 13.1329 2.0904 12.9892 2.15007 12.8168C2.20978 12.6444 2.35894 11.9546 2.38883 11.811C2.41866 11.6673 2.35894 10.1153 2.17995 9.65567C2.00091 9.196 1.13558 9.28195 0.538787 9.31078C-0.0580061 9.33962 0.00165653 11.1212 0.00165653 12.127C0.00165653 13.1329 0.807324 13.1329 0.807324 13.1329L1.76121 13.1617C1.76121 13.1617 1.79204 13.363 1.7622 13.6214C1.73237 13.8797 2.38883 14.0522 2.38883 14.0522L3.22427 14.081C3.22427 14.081 3.13478 15.6907 2.99394 16.2236C2.85304 16.757 3.01545 20.4033 2.99948 20.777C2.98357 21.1507 3.0068 21.5527 3.0068 21.5527C3.0068 21.5527 2.98557 23.2483 3.01545 23.7241C3.04528 24.1993 2.98557 25.1164 3.01545 25.7197C3.04528 26.3235 3.34365 27.8467 3.67191 28.364C4.00011 28.8814 4.47752 29.3699 4.47752 29.3699C4.47752 29.3699 5.46223 29.5423 5.52189 29.4846C5.58156 29.427 5.49206 29.6859 5.52189 29.8872C5.55172 30.0879 5.90981 31.9271 6.08885 32.2737C6.2679 32.6197 7.70013 32.3585 7.93884 32.2737C8.1776 32.1883 8.53563 31.554 8.65501 31.295C8.77434 31.0366 8.65501 29.7147 8.65501 29.7147C8.65501 29.7147 11.6091 29.8007 11.8776 29.8007C12.1462 29.8007 19.5761 29.9731 19.9341 29.9443C20.2922 29.9155 27.2149 29.8295 27.2149 29.8295C27.2149 29.8295 27.4536 31.4098 27.573 31.7835C27.6923 32.1573 28.1697 32.2737 28.1697 32.2737C28.1697 32.2737 29.3036 32.2432 29.5125 32.272C29.7214 32.3009 30.1391 31.8412 30.2286 31.6399C30.3182 31.4386 30.4972 30.3469 30.4972 30.3469C30.4972 30.3469 30.4972 29.5994 30.8254 29.5994C31.1537 29.5994 31.6907 29.3981 31.8698 29.2545C32.0488 29.1109 32.019 28.8237 32.0488 28.6801C32.0786 28.5365 32.6456 27.8179 32.8843 27.3294C33.123 26.8408 33.0335 24.6856 33.0634 24.4555C33.0932 24.2253 33.2125 24.1394 33.2424 23.9381C33.2722 23.7368 33.2424 22.3578 33.1827 22.1566C33.123 21.9553 33.0036 21.8405 33.1529 21.6681C33.3021 21.4956 33.2722 20.8347 33.2722 20.8347V16.4664C33.2722 16.4664 33.9884 16.4953 34.2569 16.4664C34.5254 16.4376 34.4658 15.6619 34.4658 15.6619C34.4658 15.6619 34.8537 15.7766 35.0924 15.8055C35.3311 15.8343 35.719 15.6907 35.8682 15.5182C36.0174 15.3458 36.4053 14.0239 36.4948 13.2188C36.5843 12.4142 35.8086 12.3854 35.5101 12.2995Z" fill="#1D1B19"/>
<path d="M21.5544 19.4706C21.5544 21.264 18.3072 25.259 18.3072 25.259C18.3072 25.259 15.0601 21.264 15.0601 19.4706C15.0601 18.6094 15.4022 17.7835 16.0111 17.1745C16.6201 16.5655 17.446 16.2234 18.3072 16.2234C19.1684 16.2234 19.9944 16.5655 20.6033 17.1745C21.2123 17.7835 21.5544 18.6094 21.5544 19.4706Z" fill="#FFCC00"/>
<path d="M19.7918 19.3292C19.7918 19.6228 19.7048 19.9098 19.5417 20.1539C19.3786 20.398 19.1467 20.5883 18.8755 20.7007C18.6042 20.813 18.3058 20.8424 18.0178 20.7851C17.7299 20.7278 17.4654 20.5865 17.2578 20.3789C17.0502 20.1713 16.9088 19.9068 16.8515 19.6188C16.7942 19.3309 16.8236 19.0324 16.936 18.7612C17.0483 18.4899 17.2386 18.2581 17.4827 18.095C17.7268 17.9319 18.0138 17.8448 18.3074 17.8448C18.5024 17.8447 18.6954 17.8831 18.8756 17.9576C19.0557 18.0322 19.2194 18.1415 19.3573 18.2794C19.4951 18.4172 19.6045 18.5809 19.679 18.7611C19.7536 18.9412 19.7919 19.1343 19.7918 19.3292Z" fill="#1D1B19"/>
<path d="M18.3072 27.6024C18.7906 27.6024 19.1825 27.2105 19.1825 26.7271C19.1825 26.2437 18.7906 25.8518 18.3072 25.8518C17.8238 25.8518 17.4319 26.2437 17.4319 26.7271C17.4319 27.2105 17.8238 27.6024 18.3072 27.6024Z" fill="#FFCC00"/>
<path d="M14.5021 10.8274C14.6727 10.8274 14.8148 10.8843 14.9285 10.998C15.0422 11.1117 15.0991 11.2538 15.0991 11.4244C15.0991 11.5878 15.0422 11.7264 14.9285 11.8401C14.8148 11.9467 14.6727 12 14.5021 12H10.8777C10.6929 12 10.5472 11.9431 10.4406 11.8294C10.334 11.7157 10.2807 11.57 10.2807 11.3924C10.2807 11.2147 10.3447 11.0584 10.4726 10.9233L12.7965 8.43956C13.0595 8.15529 13.2655 7.86392 13.4148 7.56544C13.5711 7.26696 13.6493 7.00757 13.6493 6.78726C13.6493 6.43193 13.5463 6.14766 13.3402 5.93446C13.1341 5.71415 12.8605 5.604 12.5193 5.604C12.3843 5.604 12.2457 5.63598 12.1036 5.69994C11.9615 5.7639 11.8229 5.85273 11.6879 5.96644C11.5599 6.08015 11.4391 6.21162 11.3254 6.36086C11.2401 6.47457 11.1549 6.54563 11.0696 6.57406C10.9843 6.60249 10.9061 6.6167 10.8351 6.6167C10.6787 6.6167 10.533 6.55985 10.398 6.44614C10.2701 6.32533 10.2061 6.18675 10.2061 6.0304C10.2061 5.90959 10.2452 5.79233 10.3234 5.67862C10.4087 5.56491 10.5117 5.44765 10.6325 5.32684C10.8102 5.14917 11.0092 4.99283 11.2295 4.8578C11.4498 4.72277 11.6772 4.61973 11.9117 4.54866C12.1462 4.47049 12.3737 4.4314 12.594 4.4314C13.0701 4.4314 13.4823 4.52734 13.8305 4.71922C14.1859 4.90399 14.4595 5.17049 14.6513 5.51872C14.8432 5.85984 14.9392 6.26492 14.9392 6.73396C14.9392 7.12483 14.8219 7.56189 14.5874 8.04514C14.36 8.52129 14.0508 8.96901 13.66 9.3883L12.2209 10.9233L12.1036 10.8274H14.5021ZM18.226 12C18.027 12 17.8636 11.9396 17.7357 11.8188C17.6077 11.6909 17.5438 11.5345 17.5438 11.3497V5.9771L17.693 6.21162L16.9148 6.78726C16.8154 6.86543 16.691 6.90452 16.5417 6.90452C16.3712 6.90452 16.2219 6.84056 16.094 6.71264C15.9661 6.58472 15.9021 6.43193 15.9021 6.25426C15.9021 6.02685 16.0123 5.84207 16.2326 5.69994L17.7676 4.67658C17.8387 4.62683 17.9169 4.5913 18.0022 4.56998C18.0946 4.54866 18.1798 4.538 18.258 4.538C18.4641 4.538 18.6276 4.60196 18.7484 4.72988C18.8692 4.85069 18.9296 5.00349 18.9296 5.18826V11.3497C18.9296 11.5345 18.8621 11.6909 18.727 11.8188C18.5991 11.9396 18.4321 12 18.226 12ZM23.1048 12.1066C22.4936 12.1066 21.9748 11.9467 21.5484 11.6269C21.1292 11.3 20.8094 10.8487 20.589 10.2731C20.3687 9.69033 20.2586 9.02231 20.2586 8.269C20.2586 7.50859 20.3687 6.84056 20.589 6.26492C20.8094 5.68928 21.1292 5.24156 21.5484 4.92176C21.9748 4.59485 22.4936 4.4314 23.1048 4.4314C23.716 4.4314 24.2312 4.59485 24.6505 4.92176C25.0769 5.24156 25.4003 5.68928 25.6206 6.26492C25.8409 6.84056 25.951 7.50859 25.951 8.269C25.951 9.02231 25.8409 9.69033 25.6206 10.2731C25.4003 10.8487 25.0769 11.3 24.6505 11.6269C24.2312 11.9467 23.716 12.1066 23.1048 12.1066ZM23.1048 10.8274C23.4033 10.8274 23.6591 10.735 23.8723 10.5502C24.0926 10.3584 24.2632 10.0741 24.384 9.69744C24.5048 9.31368 24.5652 8.83753 24.5652 8.269C24.5652 7.69336 24.5048 7.21721 24.384 6.84056C24.2632 6.46391 24.0926 6.18319 23.8723 5.99842C23.6591 5.80654 23.4033 5.7106 23.1048 5.7106C22.8134 5.7106 22.5576 5.80654 22.3373 5.99842C22.117 6.18319 21.9464 6.46391 21.8256 6.84056C21.7048 7.21721 21.6444 7.69336 21.6444 8.269C21.6444 8.83753 21.7048 9.31368 21.8256 9.69744C21.9464 10.0741 22.117 10.3584 22.3373 10.5502C22.5576 10.735 22.8134 10.8274 23.1048 10.8274Z" fill="black"/>
</svg>
