<svg width="30" height="27" viewBox="0 0 30 27" fill="none" xmlns="http://www.w3.org/2000/svg">
<path d="M27.1984 19.367C27.1494 19.6036 27.1739 19.8396 27.0513 19.9103C26.9286 19.9813 26.9041 20.1231 26.7569 20.1231C26.6098 20.1231 21.1901 20.5483 21.1901 20.5483L22.0484 18.0682H27.0513C27.0513 18.0682 27.2474 19.131 27.1984 19.367ZM25.4695 22.414C25.2053 22.414 24.9912 22.192 24.9912 21.9181C24.9912 21.6443 25.2053 21.4219 25.4695 21.4219C25.7336 21.4219 25.9477 21.6443 25.9477 21.9181C25.9477 22.192 25.7336 22.414 25.4695 22.414ZM14.6176 11.4786L10.5712 11.4312L8.68286 11.0771L10.4486 11.1008L10.4731 10.9117C10.4731 10.9117 9.49212 10.7225 9.14878 10.7225C8.80544 10.7225 7.40758 10.7225 7.11332 10.7462C6.81902 10.7699 5.32309 10.841 5.02878 10.9117C4.73448 10.9828 4.12141 11.1008 4.12141 11.1008L4.19496 11.2188L5.59282 11.1245L6.67187 11.0771L8.06974 11.0534L9.81094 11.6071H3.67995V11.1477C3.67995 10.9828 4.31759 6.37683 4.46474 5.90471C4.61189 5.43213 5.274 3.23558 5.54379 3.14124C5.81353 3.04645 6.54928 2.88148 6.99069 2.88148C7.43214 2.88148 13.7593 2.69236 14.2007 2.73976C14.6422 2.78669 18.3453 2.67732 18.7867 2.73201C19.2281 2.7867 23.0538 3.07015 23.4217 3.14124C23.7895 3.21188 24.9177 3.30667 25.0648 3.82618C25.212 4.3457 26.1194 7.91214 26.1684 8.47905C26.2174 9.04597 26.8551 11.5729 26.5853 11.5966C26.3155 11.6203 21.8522 11.5966 21.8522 11.5966L19.8291 11.1008L20.8222 11.1245V10.9591C20.8222 10.9591 17.6831 10.6282 17.2417 10.6519C16.8003 10.6756 15.1081 10.6756 14.8874 10.7462C14.6667 10.8173 14.2007 10.9591 14.2007 10.9591V11.1008C14.2007 11.1008 16.0646 10.9828 16.3833 11.006C16.7022 11.0297 18.4188 11.006 18.4188 11.006L20.4789 11.6071L14.6176 11.4786ZM3.06688 19.9813C2.82166 19.9103 2.6745 19.8159 2.62542 19.7453C2.57639 19.6742 2.62542 18.6352 2.62542 18.328C2.62542 18.0209 2.72354 17.8322 2.72354 17.8322L7.60381 17.9265L8.315 20.5483C8.315 20.5483 3.3121 20.052 3.06688 19.9813ZM4.30533 22.2722C4.0412 22.2722 3.8271 22.0503 3.8271 21.7764C3.8271 21.5025 4.0412 21.2801 4.30533 21.2801C4.56942 21.2801 4.78356 21.5025 4.78356 21.7764C4.78356 22.0503 4.56942 22.2722 4.30533 22.2722ZM29.1848 10.1087C28.9396 10.0376 28.5472 10.2741 28.4246 10.4628C28.302 10.6519 27.9341 11.9038 27.9096 12.1635C27.8851 12.4233 28.0077 12.7541 28.1058 12.8959C28.2039 13.0376 28.0813 13.2263 28.0077 13.2973C27.9341 13.368 27.2965 13.2973 27.2965 13.2973C27.2965 13.2973 27.321 12.8248 27.2965 12.6356C27.272 12.447 26.9531 9.84894 26.8796 9.51809C26.806 9.18769 25.776 3.94422 25.6534 3.66076C25.5308 3.3773 24.8932 2.14915 24.3782 1.44051C23.8631 0.731867 22.8822 0.684931 22.5634 0.613838C22.2446 0.543203 19.8903 0.283442 19.3507 0.176805C18.8112 0.0706234 12.435 -1.33514e-05 12.1898 -1.33514e-05C11.9445 -1.33514e-05 7.84903 0.35408 7.84903 0.35408C7.84903 0.35408 7.35854 0.354078 7.03972 0.425171C6.72095 0.495806 6.05879 0.779261 5.88713 0.92099C5.71546 1.06272 4.88163 2.17284 4.759 2.38521C4.63641 2.59803 4.02329 3.82618 3.94974 4.08594C3.87614 4.3457 3.14043 7.69932 3.04236 8.1482C2.94424 8.59709 2.69902 10.7699 2.6745 10.9591C2.64994 11.1477 2.40472 11.1951 2.20853 11.3606C2.01235 11.526 1.8652 11.1245 1.76708 10.9591C1.66901 10.7936 1.71805 10.6756 1.76708 10.5339C1.81616 10.3922 1.93875 9.82524 1.96331 9.70721C1.98783 9.58918 1.93875 8.31363 1.79164 7.93584C1.64449 7.55805 0.933302 7.62868 0.442814 7.65238C-0.0476737 7.67608 0.00136145 9.1403 0.00136145 9.96697C0.00136145 10.7936 0.663518 10.7936 0.663518 10.7936L1.44749 10.8173C1.44749 10.8173 1.47283 10.9828 1.44831 11.1951C1.42379 11.4075 1.96331 11.5492 1.96331 11.5492L2.64994 11.5729C2.64994 11.5729 2.57639 12.8959 2.46064 13.3338C2.34484 13.7722 2.47832 16.769 2.46519 17.0761C2.45212 17.3833 2.47121 17.7137 2.47121 17.7137C2.47121 17.7137 2.45376 19.1073 2.47832 19.4983C2.50284 19.8888 2.45376 20.6426 2.47832 21.1384C2.50284 21.6347 2.74806 22.8865 3.01784 23.3117C3.28758 23.7369 3.67995 24.1384 3.67995 24.1384C3.67995 24.1384 4.48926 24.2801 4.5383 24.2327C4.58733 24.1853 4.51378 24.3982 4.5383 24.5636C4.56281 24.7285 4.85711 26.2402 5.00427 26.525C5.15142 26.8094 6.32853 26.5947 6.52472 26.525C6.72095 26.4548 7.01521 25.9335 7.11332 25.7206C7.21139 25.5083 7.11332 24.4219 7.11332 24.4219C7.11332 24.4219 9.5412 24.4925 9.7619 24.4925C9.98261 24.4925 16.0891 24.6342 16.3833 24.6105C16.6776 24.5868 22.3672 24.5162 22.3672 24.5162C22.3672 24.5162 22.5634 25.815 22.6615 26.1221C22.7596 26.4293 23.152 26.525 23.152 26.525C23.152 26.525 24.0839 26.4999 24.2555 26.5236C24.4272 26.5473 24.7705 26.1695 24.8441 26.0041C24.9177 25.8387 25.0648 24.9414 25.0648 24.9414C25.0648 24.9414 25.0648 24.3271 25.3346 24.3271C25.6043 24.3271 26.0458 24.1616 26.1929 24.0436C26.3401 23.9256 26.3155 23.6895 26.3401 23.5715C26.3646 23.4535 26.8305 22.8628 27.0267 22.4614C27.2229 22.0599 27.1494 20.2885 27.1739 20.0994C27.1984 19.9103 27.2965 19.8396 27.321 19.6742C27.3456 19.5088 27.321 18.3754 27.272 18.21C27.2229 18.0445 27.1248 17.9502 27.2474 17.8085C27.3701 17.6668 27.3456 17.1235 27.3456 17.1235V13.5334C27.3456 13.5334 27.9341 13.5571 28.1548 13.5334C28.3755 13.5097 28.3265 12.8722 28.3265 12.8722C28.3265 12.8722 28.6453 12.9665 28.8415 12.9902C29.0377 13.0139 29.3565 12.8959 29.4791 12.7541C29.6017 12.6124 29.9205 11.526 29.9941 10.8643C30.0677 10.203 29.4301 10.1793 29.1848 10.1087Z" fill="black"/>
</svg>
