<svg width="16" height="16" viewBox="0 0 16 16" fill="none" xmlns="http://www.w3.org/2000/svg">
<g clip-path="url(#clip0_204_27)">
<path d="M8.5 0.5C8.5 0.367392 8.44732 0.240215 8.35355 0.146447C8.25979 0.0526784 8.13261 0 8 0C7.86739 0 7.74021 0.0526784 7.64645 0.146447C7.55268 0.240215 7.5 0.367392 7.5 0.5V1.018C5.82064 1.13829 4.24089 1.85983 3.05036 3.05036C1.85983 4.24089 1.13829 5.82064 1.018 7.5H0.5C0.367392 7.5 0.240215 7.55268 0.146447 7.64645C0.0526784 7.74021 0 7.86739 0 8C0 8.13261 0.0526784 8.25979 0.146447 8.35355C0.240215 8.44732 0.367392 8.5 0.5 8.5H1.018C1.13829 10.1794 1.85983 11.7591 3.05036 12.9496C4.24089 14.1402 5.82064 14.8617 7.5 14.982V15.5C7.5 15.6326 7.55268 15.7598 7.64645 15.8536C7.74021 15.9473 7.86739 16 8 16C8.13261 16 8.25979 15.9473 8.35355 15.8536C8.44732 15.7598 8.5 15.6326 8.5 15.5V14.982C10.1794 14.8617 11.7591 14.1402 12.9496 12.9496C14.1402 11.7591 14.8617 10.1794 14.982 8.5H15.5C15.6326 8.5 15.7598 8.44732 15.8536 8.35355C15.9473 8.25979 16 8.13261 16 8C16 7.86739 15.9473 7.74021 15.8536 7.64645C15.7598 7.55268 15.6326 7.5 15.5 7.5H14.982C14.8617 5.82064 14.1402 4.24089 12.9496 3.05036C11.7591 1.85983 10.1794 1.13829 8.5 1.018V0.5ZM2.02 7.5C2.13804 6.08611 2.75331 4.7598 3.75656 3.75656C4.7598 2.75331 6.08611 2.13804 7.5 2.02V2.5C7.5 2.63261 7.55268 2.75979 7.64645 2.85355C7.74021 2.94732 7.86739 3 8 3C8.13261 3 8.25979 2.94732 8.35355 2.85355C8.44732 2.75979 8.5 2.63261 8.5 2.5V2.02C9.91389 2.13804 11.2402 2.75331 12.2434 3.75656C13.2467 4.7598 13.862 6.08611 13.98 7.5H13.5C13.3674 7.5 13.2402 7.55268 13.1464 7.64645C13.0527 7.74021 13 7.86739 13 8C13 8.13261 13.0527 8.25979 13.1464 8.35355C13.2402 8.44732 13.3674 8.5 13.5 8.5H13.98C13.862 9.91389 13.2467 11.2402 12.2434 12.2434C11.2402 13.2467 9.91389 13.862 8.5 13.98V13.5C8.5 13.3674 8.44732 13.2402 8.35355 13.1464C8.25979 13.0527 8.13261 13 8 13C7.86739 13 7.74021 13.0527 7.64645 13.1464C7.55268 13.2402 7.5 13.3674 7.5 13.5V13.98C6.08611 13.862 4.7598 13.2467 3.75656 12.2434C2.75331 11.2402 2.13804 9.91389 2.02 8.5H2.5C2.63261 8.5 2.75979 8.44732 2.85355 8.35355C2.94732 8.25979 3 8.13261 3 8C3 7.86739 2.94732 7.74021 2.85355 7.64645C2.75979 7.55268 2.63261 7.5 2.5 7.5H2.02ZM8 10C8.53043 10 9.03914 9.78929 9.41421 9.41421C9.78929 9.03914 10 8.53043 10 8C10 7.46957 9.78929 6.96086 9.41421 6.58579C9.03914 6.21071 8.53043 6 8 6C7.46957 6 6.96086 6.21071 6.58579 6.58579C6.21071 6.96086 6 7.46957 6 8C6 8.53043 6.21071 9.03914 6.58579 9.41421C6.96086 9.78929 7.46957 10 8 10Z" fill="white"/>
</g>
<defs>
<clipPath id="clip0_204_27">
<rect width="16" height="16" fill="white"/>
</clipPath>
</defs>
</svg>
