<svg width="408" height="201" viewBox="0 0 408 201" fill="none" xmlns="http://www.w3.org/2000/svg">
<g clip-path="url(#clip0_16_239)">
<path d="M376.643 196.485C379.821 171.907 377.715 146.934 370.465 123.236C363.216 99.5384 350.99 77.6613 334.605 59.0683C318.221 40.4753 298.055 25.5948 275.457 15.4222C252.859 5.24946 228.35 0.0189965 203.568 0.0805386C178.786 0.142081 154.302 5.49421 131.755 15.779C109.208 26.0638 89.1167 41.0442 72.8247 59.7184C56.5328 78.3926 44.4158 100.33 37.2841 124.064C30.1523 147.798 28.1703 172.781 31.4705 197.342L204 174.16L376.643 196.485Z" fill="#FFCC00"/>
<path d="M257.087 145.105C256.874 146.134 256.981 147.161 256.447 147.469C255.913 147.778 255.807 148.395 255.166 148.395C254.526 148.395 230.939 150.245 230.939 150.245L234.675 139.452H256.447C256.447 139.452 257.301 144.077 257.087 145.105ZM249.563 158.365C248.414 158.365 247.482 157.399 247.482 156.207C247.482 155.015 248.414 154.047 249.563 154.047C250.713 154.047 251.644 155.015 251.644 156.207C251.644 157.399 250.713 158.365 249.563 158.365ZM202.336 110.774L184.726 110.568L176.508 109.027L184.192 109.13L184.299 108.307C184.299 108.307 180.03 107.484 178.535 107.484C177.041 107.484 170.958 107.484 169.677 107.587C168.396 107.69 161.886 108 160.605 108.307C159.324 108.616 156.656 109.13 156.656 109.13L156.976 109.644L163.06 109.233L167.756 109.027L173.839 108.924L181.417 111.333H154.735V109.334C154.735 108.616 157.51 88.5713 158.151 86.5167C158.791 84.46 161.672 74.9006 162.847 74.4901C164.02 74.0775 167.222 73.3596 169.143 73.3596C171.065 73.3596 198.6 72.5365 200.522 72.7428C202.443 72.9471 218.559 72.4711 220.48 72.7091C222.401 72.9471 239.05 74.1807 240.651 74.4901C242.252 74.7975 247.162 75.21 247.802 77.4709C248.442 79.7319 252.391 95.253 252.605 97.7202C252.818 100.187 255.593 111.185 254.419 111.288C253.245 111.391 233.821 111.288 233.821 111.288L225.016 109.13L229.338 109.233V108.513C229.338 108.513 215.677 107.073 213.756 107.176C211.835 107.28 204.47 107.28 203.51 107.587C202.549 107.896 200.522 108.513 200.522 108.513V109.13C200.522 109.13 208.633 108.616 210.02 108.717C211.408 108.821 218.879 108.717 218.879 108.717L227.844 111.333L202.336 110.774ZM152.067 147.778C151 147.469 150.359 147.058 150.146 146.751C149.932 146.441 150.146 141.92 150.146 140.583C150.146 139.246 150.573 138.425 150.573 138.425L171.812 138.836L174.907 150.245C174.907 150.245 153.134 148.086 152.067 147.778ZM157.457 157.748C156.307 157.748 155.376 156.782 155.376 155.59C155.376 154.398 156.307 153.431 157.457 153.431C158.606 153.431 159.538 154.398 159.538 155.59C159.538 156.782 158.606 157.748 157.457 157.748ZM265.732 104.812C264.665 104.503 262.957 105.532 262.424 106.353C261.89 107.176 260.289 112.625 260.183 113.755C260.076 114.885 260.609 116.325 261.036 116.942C261.463 117.559 260.93 118.38 260.609 118.689C260.289 118.997 257.514 118.689 257.514 118.689C257.514 118.689 257.621 116.633 257.514 115.81C257.408 114.989 256.02 103.682 255.7 102.242C255.38 100.804 250.897 77.9846 250.363 76.751C249.83 75.5174 247.055 70.1725 244.814 67.0885C242.572 64.0045 238.303 63.8002 236.916 63.4908C235.528 63.1834 225.282 62.0529 222.934 61.5888C220.586 61.1267 192.837 60.8193 191.77 60.8193C190.702 60.8193 172.879 62.3603 172.879 62.3603C172.879 62.3603 170.744 62.3603 169.357 62.6697C167.97 62.9771 165.088 64.2107 164.341 64.8275C163.594 65.4443 159.965 70.2756 159.431 71.1998C158.898 72.126 156.229 77.4709 155.909 78.6014C155.589 79.7319 152.387 94.3268 151.96 96.2804C151.533 98.2339 150.466 107.69 150.359 108.513C150.253 109.334 149.185 109.541 148.332 110.26C147.478 110.98 146.837 109.233 146.41 108.513C145.984 107.793 146.197 107.28 146.41 106.663C146.624 106.046 147.157 103.579 147.264 103.065C147.371 102.551 147.157 97.0003 146.517 95.3561C145.877 93.712 142.782 94.0194 140.647 94.1225C138.512 94.2257 138.726 100.598 138.726 104.196C138.726 107.793 141.608 107.793 141.608 107.793L145.019 107.896C145.019 107.896 145.13 108.616 145.023 109.541C144.916 110.465 147.264 111.082 147.264 111.082L150.253 111.185C150.253 111.185 149.932 116.942 149.429 118.848C148.925 120.756 149.506 133.798 149.448 135.135C149.392 136.472 149.475 137.909 149.475 137.909C149.475 137.909 149.399 143.974 149.506 145.676C149.612 147.376 149.399 150.656 149.506 152.814C149.612 154.974 150.68 160.422 151.854 162.272C153.028 164.122 154.735 165.87 154.735 165.87C154.735 165.87 158.257 166.486 158.471 166.28C158.684 166.074 158.364 167 158.471 167.72C158.577 168.438 159.858 175.017 160.499 176.256C161.139 177.494 166.262 176.56 167.116 176.256C167.97 175.951 169.25 173.682 169.677 172.756C170.104 171.831 169.677 167.103 169.677 167.103C169.677 167.103 180.243 167.411 181.204 167.411C182.164 167.411 208.74 168.027 210.02 167.924C211.301 167.821 236.062 167.514 236.062 167.514C236.062 167.514 236.916 173.166 237.343 174.503C237.77 175.84 239.477 176.256 239.477 176.256C239.477 176.256 243.533 176.147 244.28 176.25C245.027 176.353 246.521 174.709 246.841 173.989C247.162 173.269 247.802 169.364 247.802 169.364C247.802 169.364 247.802 166.691 248.976 166.691C250.15 166.691 252.071 165.971 252.711 165.457C253.352 164.943 253.245 163.916 253.352 163.402C253.459 162.889 255.487 160.318 256.34 158.571C257.194 156.824 256.874 149.115 256.981 148.292C257.087 147.469 257.514 147.161 257.621 146.441C257.728 145.722 257.621 140.789 257.408 140.069C257.194 139.349 256.767 138.939 257.301 138.322C257.835 137.705 257.728 135.341 257.728 135.341V119.717C257.728 119.717 260.289 119.82 261.25 119.717C262.21 119.614 261.997 116.839 261.997 116.839C261.997 116.839 263.384 117.25 264.238 117.353C265.092 117.456 266.479 116.942 267.013 116.325C267.547 115.709 268.934 110.98 269.254 108.101C269.575 105.223 266.8 105.12 265.732 104.812Z" fill="#1D1B19"/>
<path d="M215.813 130.461C215.813 136.876 204.198 151.165 204.198 151.165C204.198 151.165 192.584 136.876 192.584 130.461C192.584 127.381 193.808 124.427 195.986 122.248C198.164 120.07 201.118 118.847 204.198 118.847C207.279 118.847 210.233 120.07 212.411 122.248C214.589 124.427 215.813 127.381 215.813 130.461Z" fill="#FFCC00"/>
<path d="M209.508 129.956C209.508 131.006 209.197 132.033 208.613 132.906C208.03 133.779 207.201 134.46 206.23 134.861C205.26 135.263 204.193 135.368 203.163 135.164C202.133 134.959 201.187 134.453 200.444 133.71C199.702 132.968 199.196 132.022 198.991 130.992C198.786 129.962 198.891 128.894 199.293 127.924C199.695 126.954 200.376 126.125 201.249 125.541C202.122 124.958 203.149 124.647 204.199 124.647C204.896 124.646 205.587 124.783 206.231 125.05C206.875 125.317 207.461 125.708 207.954 126.201C208.447 126.694 208.838 127.28 209.105 127.924C209.371 128.568 209.508 129.259 209.508 129.956Z" fill="#1D1B19"/>
<path d="M204.198 159.547C205.928 159.547 207.329 158.146 207.329 156.417C207.329 154.687 205.928 153.286 204.198 153.286C202.469 153.286 201.068 154.687 201.068 156.417C201.068 158.146 202.469 159.547 204.198 159.547Z" fill="#FFCC00"/>
<path d="M167.468 83.578C167.673 83.578 167.886 83.6367 168.106 83.754C168.34 83.8567 168.516 83.996 168.634 84.172L173.98 92.4L172.88 92.356L178.358 84.172C178.636 83.776 178.996 83.578 179.436 83.578C179.788 83.578 180.103 83.7027 180.382 83.952C180.66 84.2013 180.8 84.524 180.8 84.92V97.658C180.8 98.0393 180.675 98.362 180.426 98.626C180.176 98.8753 179.846 99 179.436 99C179.025 99 178.688 98.8753 178.424 98.626C178.174 98.362 178.05 98.0393 178.05 97.658V87.296L178.908 87.494L174.42 94.336C174.288 94.4973 174.119 94.6367 173.914 94.754C173.723 94.8713 173.525 94.9227 173.32 94.908C173.129 94.9227 172.931 94.8713 172.726 94.754C172.535 94.6367 172.374 94.4973 172.242 94.336L168.04 87.692L168.612 86.526V97.658C168.612 98.0393 168.494 98.362 168.26 98.626C168.025 98.8753 167.717 99 167.336 99C166.969 99 166.668 98.8753 166.434 98.626C166.199 98.362 166.082 98.0393 166.082 97.658V84.92C166.082 84.5533 166.214 84.238 166.478 83.974C166.756 83.71 167.086 83.578 167.468 83.578ZM193.919 83.534C194.256 83.534 194.557 83.666 194.821 83.93C195.1 84.1793 195.239 84.502 195.239 84.898C195.239 85.03 195.217 85.1693 195.173 85.316C195.144 85.448 195.085 85.58 194.997 85.712L190.003 92.862L190.399 91.344V97.658C190.399 98.0393 190.267 98.362 190.003 98.626C189.754 98.8753 189.46 99 189.123 99C188.756 99 188.441 98.8753 188.177 98.626C187.928 98.362 187.803 98.0393 187.803 97.658V91.52L187.979 92.224L183.227 85.91C183.08 85.7193 182.978 85.536 182.919 85.36C182.86 85.184 182.831 85.0227 182.831 84.876C182.831 84.48 182.985 84.1573 183.293 83.908C183.601 83.6587 183.916 83.534 184.239 83.534C184.65 83.534 185.009 83.7393 185.317 84.15L189.541 89.98L188.925 89.892L192.819 84.194C193.127 83.754 193.494 83.534 193.919 83.534ZM210.265 83.6C211.673 83.6 212.721 83.93 213.411 84.59C214.1 85.25 214.445 86.2253 214.445 87.516C214.445 88.2053 214.276 88.814 213.939 89.342C213.601 89.8553 213.103 90.2587 212.443 90.552C211.783 90.8307 210.969 90.97 210.001 90.97L210.089 89.98C210.543 89.98 211.064 90.046 211.651 90.178C212.237 90.2953 212.802 90.5153 213.345 90.838C213.902 91.146 214.357 91.586 214.709 92.158C215.075 92.7153 215.259 93.434 215.259 94.314C215.259 95.282 215.097 96.074 214.775 96.69C214.467 97.306 214.056 97.7827 213.543 98.12C213.029 98.4573 212.479 98.692 211.893 98.824C211.306 98.9413 210.741 99 210.199 99H204.721C204.339 99 204.017 98.8753 203.753 98.626C203.503 98.362 203.379 98.0393 203.379 97.658V84.942C203.379 84.5607 203.503 84.2453 203.753 83.996C204.017 83.732 204.339 83.6 204.721 83.6H210.265ZM209.869 86.196H205.953L206.239 85.844V89.826L205.975 89.628H209.935C210.36 89.628 210.741 89.4887 211.079 89.21C211.416 88.9313 211.585 88.528 211.585 88C211.585 87.3693 211.423 86.9147 211.101 86.636C210.793 86.3427 210.382 86.196 209.869 86.196ZM210.045 92.224H206.041L206.239 92.048V96.69L206.019 96.47H210.199C210.873 96.47 211.409 96.294 211.805 95.942C212.201 95.5753 212.399 95.0327 212.399 94.314C212.399 93.654 212.267 93.1773 212.003 92.884C211.739 92.5907 211.423 92.4073 211.057 92.334C210.69 92.2607 210.353 92.224 210.045 92.224ZM228.729 83.578C229.11 83.578 229.418 83.71 229.653 83.974C229.887 84.2233 230.005 84.5387 230.005 84.92V92.884C230.005 94.1013 229.741 95.1793 229.213 96.118C228.699 97.0567 227.988 97.79 227.079 98.318C226.169 98.846 225.113 99.11 223.911 99.11C222.708 99.11 221.645 98.846 220.721 98.318C219.811 97.79 219.093 97.0567 218.565 96.118C218.051 95.1793 217.795 94.1013 217.795 92.884V84.92C217.795 84.5387 217.927 84.2233 218.191 83.974C218.455 83.71 218.792 83.578 219.203 83.578C219.54 83.578 219.841 83.71 220.105 83.974C220.383 84.2233 220.523 84.5387 220.523 84.92V92.884C220.523 93.6173 220.677 94.2553 220.985 94.798C221.307 95.326 221.725 95.7367 222.239 96.03C222.767 96.3233 223.324 96.47 223.911 96.47C224.541 96.47 225.128 96.3233 225.671 96.03C226.213 95.7367 226.653 95.326 226.991 94.798C227.328 94.2553 227.497 93.6173 227.497 92.884V84.92C227.497 84.5387 227.607 84.2233 227.827 83.974C228.047 83.71 228.347 83.578 228.729 83.578ZM238.041 99.22C237.015 99.22 236.091 99.0953 235.269 98.846C234.448 98.582 233.663 98.1273 232.915 97.482C232.725 97.3207 232.578 97.1373 232.475 96.932C232.373 96.7267 232.321 96.5213 232.321 96.316C232.321 95.9787 232.439 95.6853 232.673 95.436C232.923 95.172 233.231 95.04 233.597 95.04C233.876 95.04 234.125 95.128 234.345 95.304C234.903 95.7587 235.453 96.1033 235.995 96.338C236.553 96.5727 237.235 96.69 238.041 96.69C238.584 96.69 239.083 96.6093 239.537 96.448C239.992 96.272 240.359 96.0447 240.637 95.766C240.916 95.4727 241.055 95.1427 241.055 94.776C241.055 94.336 240.923 93.962 240.659 93.654C240.395 93.346 239.992 93.0893 239.449 92.884C238.907 92.664 238.217 92.4953 237.381 92.378C236.589 92.2607 235.893 92.0847 235.291 91.85C234.69 91.6007 234.184 91.2927 233.773 90.926C233.377 90.5447 233.077 90.1047 232.871 89.606C232.666 89.0927 232.563 88.5207 232.563 87.89C232.563 86.9367 232.805 86.1227 233.289 85.448C233.788 84.7733 234.455 84.26 235.291 83.908C236.127 83.556 237.051 83.38 238.063 83.38C239.017 83.38 239.897 83.5267 240.703 83.82C241.525 84.0987 242.192 84.458 242.705 84.898C243.131 85.2353 243.343 85.624 243.343 86.064C243.343 86.3867 243.219 86.68 242.969 86.944C242.72 87.208 242.427 87.34 242.089 87.34C241.869 87.34 241.671 87.274 241.495 87.142C241.261 86.9367 240.945 86.746 240.549 86.57C240.153 86.3793 239.735 86.2253 239.295 86.108C238.855 85.976 238.445 85.91 238.063 85.91C237.433 85.91 236.897 85.9907 236.457 86.152C236.032 86.3133 235.709 86.5333 235.489 86.812C235.269 87.0907 235.159 87.4133 235.159 87.78C235.159 88.22 235.284 88.5867 235.533 88.88C235.797 89.1587 236.171 89.386 236.655 89.562C237.139 89.7233 237.719 89.87 238.393 90.002C239.273 90.1633 240.043 90.354 240.703 90.574C241.378 90.794 241.935 91.08 242.375 91.432C242.815 91.7693 243.145 92.202 243.365 92.73C243.585 93.2433 243.695 93.874 243.695 94.622C243.695 95.5753 243.431 96.3967 242.903 97.086C242.375 97.7753 241.679 98.3033 240.813 98.67C239.963 99.0367 239.039 99.22 238.041 99.22Z" fill="black"/>
<mask id="path-7-inside-1_16_239" fill="white">
<path d="M402.56 200.621C248.307 165.983 154.77 164.342 5.43994 200.621C212.205 184.034 212.205 184.034 402.56 200.621Z"/>
</mask>
<path d="M402.56 200.621C248.307 165.983 154.77 164.342 5.43994 200.621C212.205 184.034 212.205 184.034 402.56 200.621Z" fill="black"/>
<path d="M402.56 200.621L402.275 203.891L403.279 197.419L402.56 200.621ZM5.43994 200.621L4.66514 197.432L5.70239 203.893L5.43994 200.621ZM403.279 197.419C248.588 162.683 154.537 161.021 4.66514 197.432L6.21475 203.811C155.003 167.663 248.026 169.284 401.841 203.824L403.279 197.419ZM5.70239 203.893C109.138 195.595 160.676 191.463 210.154 191.463C259.62 191.463 307.048 195.593 402.275 203.891L402.845 197.352C307.717 189.062 259.968 184.899 210.154 184.899C160.351 184.899 108.507 189.06 5.1775 197.35L5.70239 203.893Z" fill="black" mask="url(#path-7-inside-1_16_239)"/>
<path d="M205.078 185.051H203V182.367H205.078V185.051ZM205.078 179.683H203V177H205.078V179.683Z" fill="#E6E6E6"/>
</g>
<defs>
<clipPath id="clip0_16_239">
<rect width="408" height="201" fill="white"/>
</clipPath>
</defs>
</svg>
