<svg width="94" height="78" viewBox="0 0 94 78" fill="none" xmlns="http://www.w3.org/2000/svg">
<g clip-path="url(#clip0_66_117)">
<path opacity="0.4" d="M-0.405963 11.0789H6.04968L6.04968 7.38939L-0.405963 7.38939L-0.405963 11.0789Z" fill="white"/>
<path opacity="0.4" d="M-0.405963 18.3032H6.04968L6.04968 14.6136H-0.405963L-0.405963 18.3032Z" fill="white"/>
<path opacity="0.4" d="M-0.405963 25.5275H6.04968L6.04968 21.8379H-0.405963L-0.405963 25.5275Z" fill="white"/>
<path opacity="0.4" d="M-0.405963 32.7516H6.04968L6.04968 29.0621H-0.405963L-0.405963 32.7516Z" fill="white"/>
<path opacity="0.4" d="M-0.405963 39.9758H6.04968L6.04968 36.2863H-0.405963L-0.405963 39.9758Z" fill="white"/>
<path opacity="0.4" d="M-0.405963 47.2H6.04968L6.04968 43.5105H-0.405963L-0.405963 47.2Z" fill="white"/>
<path opacity="0.4" d="M-0.405963 54.4244H6.04968L6.04968 50.7348H-0.405963L-0.405963 54.4244Z" fill="white"/>
<path opacity="0.4" d="M26.4936 41.6666H11.4299V43.5106H26.4936V41.6666Z" fill="white"/>
<path opacity="0.4" d="M26.4936 44.434H11.4299V46.2781H26.4936V44.434Z" fill="white"/>
<path opacity="0.4" d="M26.4936 47.2H11.4299V49.0441H26.4936V47.2Z" fill="white"/>
<path opacity="0.4" d="M65.8427 42.5899H50.7791V44.434H65.8427V42.5899Z" fill="white"/>
<path opacity="0.4" d="M65.8427 45.3559H50.7791V47.2H65.8427V45.3559Z" fill="white"/>
<path opacity="0.4" d="M65.8427 48.1221H50.7791V49.9662H65.8427V48.1221Z" fill="white"/>
<path opacity="0.4" d="M26.4936 49.9677H11.4299V51.8117H26.4936V49.9677Z" fill="white"/>
<path opacity="0.4" d="M26.4936 52.7336H11.4299V54.5777H26.4936V52.7336Z" fill="white"/>
<path opacity="0.4" d="M26.4936 55.5012H11.4299V57.3453H26.4936V55.5012Z" fill="white"/>
<path opacity="0.4" d="M36.1756 22.6078H32.0258V27.9879H36.1756V22.6078Z" fill="white"/>
<path opacity="0.4" d="M41.0954 27.9865H45.2452V22.6063H41.0954V27.9865Z" fill="white"/>
<path opacity="0.4" d="M36.1756 31.2144H32.0258V36.5945H36.1756V31.2144Z" fill="white"/>
<path opacity="0.4" d="M41.0954 36.5945H45.2452V31.2144H41.0954V36.5945Z" fill="white"/>
<path opacity="0.4" d="M36.1756 39.8223H32.0258V45.2025H36.1756V39.8223Z" fill="white"/>
<path opacity="0.4" d="M41.0954 45.2025H45.2452V39.8224H41.0954V45.2025Z" fill="white"/>
<path opacity="0.4" d="M36.1756 48.4304H32.0258V53.8105H36.1756V48.4304Z" fill="white"/>
<path opacity="0.4" d="M41.0954 53.8104H45.2452V48.4303H41.0954V53.8104Z" fill="white"/>
<path opacity="0.4" d="M73.6806 -6.28925H68.147V0.781549H73.6806V-6.28925Z" fill="white"/>
<path opacity="0.4" d="M73.6806 3.85461H68.147V10.9254H73.6806V3.85461Z" fill="white"/>
<path opacity="0.4" d="M73.6806 13.9998H68.147V21.0706H73.6806V13.9998Z" fill="white"/>
<path opacity="0.4" d="M73.6806 24.1448H68.147V31.2156H73.6806V24.1448Z" fill="white"/>
<path opacity="0.4" d="M73.6806 34.2889H68.147V41.3597H73.6806V34.2889Z" fill="white"/>
<path opacity="0.4" d="M73.6806 44.434H68.147V51.5048H73.6806V44.434Z" fill="white"/>
<path opacity="0.1" d="M60.7218 6.72667H59.664C59.8603 6.72667 60.0485 6.6487 60.1873 6.50991C60.3261 6.37112 60.4041 6.18288 60.4041 5.9866C60.4041 5.79032 60.3261 5.60207 60.1873 5.46328C60.0485 5.32449 59.8603 5.24652 59.664 5.24652H51.0967C50.9005 5.24652 50.7122 5.32449 50.5734 5.46328C50.4346 5.60207 50.3567 5.79032 50.3567 5.9866C50.3567 6.18288 50.4346 6.37112 50.5734 6.50991C50.7122 6.6487 50.9005 6.72667 51.0967 6.72667H52.1519C51.9609 6.73485 51.7805 6.81647 51.6482 6.9545C51.516 7.09252 51.4422 7.27628 51.4422 7.46743C51.4422 7.65858 51.516 7.84234 51.6482 7.98037C51.7805 8.11839 51.9609 8.20001 52.1519 8.20819H50.6717C50.5745 8.20819 50.4783 8.22733 50.3885 8.26452C50.2987 8.30172 50.2171 8.35623 50.1484 8.42495C50.0797 8.49367 50.0252 8.57526 49.988 8.66505C49.9508 8.75484 49.9316 8.85107 49.9316 8.94826C49.9316 9.04545 49.9508 9.14169 49.988 9.23148C50.0252 9.32127 50.0797 9.40285 50.1484 9.47158C50.2171 9.5403 50.2987 9.59481 50.3885 9.63201C50.4783 9.6692 50.5745 9.68834 50.6717 9.68834H59.2403C59.4366 9.68834 59.6248 9.61037 59.7636 9.47158C59.9024 9.33278 59.9804 9.14454 59.9804 8.94826C59.9804 8.75198 59.9024 8.56374 59.7636 8.42495C59.6248 8.28616 59.4366 8.20819 59.2403 8.20819H60.7218C60.9128 8.20001 61.0932 8.11839 61.2255 7.98037C61.3577 7.84234 61.4315 7.65858 61.4315 7.46743C61.4315 7.27628 61.3577 7.09252 61.2255 6.9545C61.0932 6.81647 60.9128 6.73485 60.7218 6.72667Z" fill="#1D1B19"/>
<path d="M37.5052 71.4705H37.5364C37.5364 71.4705 32.55 57.9482 31.1541 56.1109C31.1541 56.1109 29.6916 55.2567 29.7581 53.8132L27.9643 45.2066C27.9643 45.2066 27.9914 45.1808 28.0363 45.1319L28.0743 45.0898C28.0879 45.0749 28.1028 45.0586 28.1177 45.0396C28.3572 44.7616 28.5578 44.4523 28.7139 44.1203C28.7234 44.0985 28.7342 44.0782 28.7437 44.0564C28.8104 43.9058 28.8662 43.7506 28.9108 43.592C29.0362 43.6355 29.1736 43.6282 29.2937 43.5717C29.2937 43.5717 29.2937 43.5255 29.2937 43.4426C29.2937 43.4426 29.2761 42.9334 29.2747 42.1377C29.2747 41.915 29.2747 41.6733 29.2747 41.4166C29.3327 41.21 29.3803 41.0006 29.4173 40.7892L29.344 40.7553C29.344 40.7444 29.3439 40.7349 29.3507 40.724L29.2896 40.6955C29.3385 38.808 29.5015 36.3963 29.9686 34.7532C29.9849 34.6948 30.0012 34.6378 30.0188 34.5807C30.5729 32.7869 30.5851 30.5965 30.7277 28.7416C30.8397 28.9738 30.9358 29.2134 31.0156 29.4586C31.0861 29.3807 31.1675 29.3135 31.2573 29.259L31.814 33.66V38.8447C31.814 38.8447 30.8825 45.5407 33.8075 44.2941C36.7325 43.0475 34.606 38.4549 34.606 38.4549C34.606 38.4549 34.606 35.8952 35.0052 34.5821C35.2673 33.7184 35.0975 30.9156 34.9509 29.1109C35.2306 29.1612 35.4031 29.2006 35.4031 29.2006C35.468 28.9373 35.4972 28.6664 35.49 28.3953C35.5497 25.3698 31.7706 20.4921 30.2293 18.6317C29.7882 17.9671 29.1747 17.4348 28.4545 17.0918L25.4983 15.6782C25.4983 15.6782 24.1064 15.3319 23.5632 14.2727C23.5632 14.2551 23.5537 14.2361 23.5496 14.2171C23.6107 14.1899 23.6718 14.1614 23.7316 14.1301C24.1814 13.9158 24.5766 13.6019 24.8872 13.2122C25.5173 12.4219 25.8174 11.4319 26.1093 10.4678C26.4475 9.33526 26.7883 8.17694 26.7435 6.99553C26.6987 5.81412 26.2003 4.58654 25.1805 3.95918C24.3128 3.42415 23.1042 3.3223 22.5665 2.46544C22.4212 2.23459 22.3329 1.96029 22.1387 1.77289C22.1403 1.7333 22.1273 1.69451 22.1023 1.66376C22.0773 1.63302 22.042 1.61244 22.0029 1.60587L20.4956 1.31527C20.4533 1.30723 20.4096 1.31611 20.3738 1.33997C20.338 1.36384 20.313 1.4008 20.3041 1.44291V1.46328C18.9742 1.49976 17.6684 1.82748 16.4788 2.42335C16.057 2.62626 15.652 2.86238 15.2675 3.12948C14.7244 3.51242 14.1812 4.01757 14.1051 4.67481C14.0658 5.00207 14.1459 5.33749 14.078 5.65796C13.8987 6.51618 12.735 7.07429 12.9047 7.93387C13.0188 8.51778 13.6883 8.769 14.3143 8.77036C14.1984 9.179 14.1394 9.60169 14.1391 10.0265C14.1445 11.1042 14.522 12.1471 15.2076 12.9787C15.8932 13.8103 16.845 14.3796 17.9019 14.5905C18.3578 15.2233 18.7572 15.8949 19.0956 16.5975C18.3297 17.3159 16.726 18.9834 17.7091 19.5443L15.6722 24.5333L15.8705 29.6786L15.0082 30.4404L15.1969 30.6739C14.2314 31.7847 11.9936 34.2141 10.3586 34.8605C10.1243 34.9537 9.89731 35.0645 9.67962 35.1918C9.37977 35.3791 9.04706 35.5076 8.69919 35.5707C8.54718 35.5862 8.39679 35.6148 8.24971 35.6562L7.85998 34.8564C7.79203 34.7176 7.67205 34.6112 7.5261 34.5603C7.38015 34.5095 7.22002 34.5183 7.08052 34.5848L6.84152 34.6989L6.27255 34.9705L6.03627 35.0832L5.85566 35.1687C5.78701 35.2011 5.72547 35.2468 5.67459 35.3032C5.62371 35.3596 5.58451 35.4254 5.55926 35.497C5.534 35.5686 5.52319 35.6445 5.52745 35.7203C5.53171 35.7961 5.55096 35.8703 5.58407 35.9387L6.05664 36.9069C5.38446 37.4921 5.05583 38.1915 5.97109 38.8406C6.32637 39.0967 6.75537 39.2301 7.19323 39.2208L7.48112 39.8088C7.54879 39.9475 7.66853 40.0539 7.81426 40.1048C7.95999 40.1556 8.11991 40.1469 8.25921 40.0804L8.6761 39.8821L9.49087 39.4978C9.55959 39.4657 9.62124 39.4202 9.6722 39.364C9.72317 39.3078 9.76243 39.242 9.78771 39.1704C9.81299 39.0989 9.82378 39.023 9.81944 38.9473C9.8151 38.8715 9.79573 38.7974 9.76245 38.7292L9.52617 38.2444C10.0541 37.8397 10.5383 37.3809 10.971 36.8756C10.971 36.8756 12.1837 36.1247 12.8979 35.9577C13.3719 35.8463 15.0353 34.7695 16.0592 34.0878L16.3512 41.6678C16.2857 41.7659 16.2101 41.857 16.1258 41.9394L16.3553 41.7792V41.8348C16.3213 41.8729 16.2887 41.9082 16.2561 41.9394L16.3553 41.8688V41.9598C16.3236 41.999 16.2891 42.0357 16.252 42.0698L16.3566 41.9964L16.3865 42.784L16.8876 41.9693L16.9188 42.784L17.0356 42.5926C15.6315 44.9486 13.8023 48.4168 12.826 51.908C12.826 51.908 11.2983 54.5329 11.4965 57.2244L8.68561 70.5458L8.73993 70.5661C7.82875 71.2139 5.91405 72.4021 4.0333 72.4496C4.0333 72.4496 -0.487278 72.3138 0.774249 73.3024C2.03577 74.291 13.2673 75.7317 13.2673 75.7317L13.6991 72.4129L13.7996 72.4496C13.7996 72.4496 13.7996 72.4306 13.7928 72.398L13.9286 72.4496C13.9286 72.4496 13.657 70.8079 14.6592 69.8899C15.6613 68.9719 17.9834 59.6497 17.7824 58.2116C17.7824 58.2116 19.5668 53.8078 21.8006 50.2962L24.4296 56.965L27.3546 61.9541C27.3546 61.9541 31.2451 70.4955 31.1201 72.3994C30.3054 73.3852 28.8415 74.9292 27.7538 74.8844C27.7538 74.8844 23.2998 75.7385 26.3578 76.5261C29.4159 77.3137 38.3892 74.3534 38.3892 74.3534L37.5052 71.4705ZM18.031 40.9291L18.0581 40.9142C17.9223 41.1246 17.7716 41.3596 17.6113 41.6162L18.031 40.9291Z" fill="url(#paint0_linear_66_117)"/>
<path d="M16.1015 41.9355C15.9914 42.013 15.9316 42.0578 15.9316 42.0578C15.994 42.0257 16.0513 41.9844 16.1015 41.9355Z" fill="url(#paint1_linear_66_117)"/>
<path d="M16.2346 42.0656L16.0647 42.1893C16.1271 42.1566 16.1843 42.115 16.2346 42.0656Z" fill="url(#paint2_linear_66_117)"/>
<path d="M16.2346 41.9355C16.1245 42.013 16.0647 42.0578 16.0647 42.0578C16.1271 42.0257 16.1843 41.9844 16.2346 41.9355Z" fill="url(#paint3_linear_66_117)"/>
<path d="M31.4447 71.6606C31.4447 71.6606 29.1118 74.9658 27.5569 74.9006C27.5569 74.9006 23.2115 75.7426 26.199 76.5207C29.1865 77.2988 37.9302 74.3819 37.9302 74.3819L36.8901 70.9871L31.4447 71.6606Z" fill="#333333"/>
<path d="M21.0103 48.7182L24.3141 57.2081L27.1658 62.1333C27.1658 62.1333 31.0875 70.8499 30.8322 72.5351L37.0788 71.5303C37.0788 71.5303 32.2187 58.1804 30.858 56.3662C30.858 56.3662 29.4322 55.5229 29.5001 54.097L27.7511 45.614C27.7511 45.614 29.4526 43.9722 28.502 41.915C28.4515 41.8057 28.3953 41.6992 28.3336 41.5958C27.0381 39.3933 22.1129 40.6236 22.1129 40.6236L21.0103 48.7182Z" fill="#535461"/>
<path opacity="0.03" d="M21.0103 48.7182L24.3141 57.2081L27.1658 62.1333C27.1658 62.1333 31.0875 70.8499 30.8322 72.5351L37.0788 71.5303C37.0788 71.5303 32.2187 58.1804 30.858 56.3662C30.858 56.3662 29.4322 55.5229 29.5001 54.097L27.7511 45.614C27.7511 45.614 29.4526 43.9722 28.502 41.915C28.4515 41.8057 28.3953 41.6992 28.3336 41.5958C27.0381 39.3933 22.1129 40.6236 22.1129 40.6236L21.0103 48.7182Z" fill="black"/>
<g opacity="0.1">
<path d="M30.8622 56.3663C30.8622 56.3663 29.4363 55.523 29.5042 54.0972L27.7511 45.6141C27.7511 45.6141 29.4526 43.9724 28.5021 41.9151C28.4515 41.8059 28.3953 41.6993 28.3337 41.596C27.705 40.5273 26.2234 40.2665 24.8628 40.2815C26.1678 40.2937 27.5407 40.5789 28.1395 41.596C28.2013 41.699 28.257 41.8056 28.3065 41.9151C29.2571 43.9724 27.5569 45.6141 27.5569 45.6141L29.306 54.104C29.2422 55.5298 30.6639 56.3731 30.6639 56.3731C32.0219 58.1873 36.8846 71.5372 36.8846 71.5372L30.8323 72.5013C30.8323 72.5108 30.8323 72.5231 30.8323 72.5326L37.0788 71.5277C37.0788 71.5277 32.2228 58.1805 30.8622 56.3663Z" fill="black"/>
</g>
<path d="M9.53959 70.2347C9.53959 70.2347 6.94728 72.4373 4.42015 72.5025C4.42015 72.5025 0.0136392 72.3667 1.24393 73.3458C2.47423 74.3249 13.4287 75.7425 13.4287 75.7425L13.9162 71.958L9.53959 70.2347Z" fill="#333333"/>
<g opacity="0.1">
<path d="M19.0669 40.0995C19.0669 40.0995 14.7894 46.126 13.1042 52.2177C13.1042 52.2177 11.6105 54.81 11.8087 57.4675L9.08606 70.6232L14.0765 72.5013C14.0765 72.5013 13.8171 70.8812 14.7894 69.9741C15.7617 69.067 18.0295 59.8643 17.8353 58.4384C17.8353 58.4384 20.9463 50.6615 24.0573 47.6157C27.1684 44.5698 28.7151 43.8664 29.1727 41.2333C29.1727 41.2374 21.8534 37.7013 19.0669 40.0995Z" fill="black"/>
</g>
<path d="M18.9367 40.0995C18.9367 40.0995 14.6592 46.126 12.9754 52.2177C12.9754 52.2177 11.4816 54.81 11.6785 57.4675L8.96265 70.6232L13.9463 72.5013C13.9463 72.5013 13.6883 70.8812 14.6592 69.9741C15.6301 69.067 17.9006 59.8643 17.7051 58.4384C17.7051 58.4384 20.8161 50.6615 23.9271 47.6157C27.0382 44.5698 28.5862 43.8664 29.0439 41.2333C29.0439 41.2374 21.7232 37.7013 18.9367 40.0995Z" fill="#535461"/>
<g opacity="0.1">
<path d="M21.6999 39.2018C24.9128 39.2398 28.9133 41.1735 28.9133 41.1735C28.4557 43.8025 26.9076 44.5059 23.7979 47.5558C20.6883 50.6058 17.5759 58.3786 17.5759 58.3786C17.77 59.8044 15.5023 69.0072 14.53 69.9143C13.684 70.7046 13.7709 72.0341 13.8076 72.3654L14.0113 72.4414C14.0113 72.4414 13.7519 70.8214 14.7242 69.9143C15.6965 69.0072 17.9642 59.8044 17.77 58.3786C17.77 58.3786 20.8811 50.6017 23.9921 47.5558C27.1032 44.51 28.6512 43.8066 29.1075 41.1735C29.1075 41.1735 24.9427 39.161 21.6999 39.2018Z" fill="black"/>
</g>
<path d="M15.7592 30.7012C15.7592 30.7012 12.6658 34.5537 10.5773 35.3901C10.3478 35.4823 10.1254 35.5912 9.91195 35.716C9.62184 35.9003 9.29921 36.0276 8.96139 36.0908C8.71137 36.1143 8.46687 36.1785 8.2376 36.281C7.15125 36.7807 4.64857 38.1332 6.30118 39.3214C8.37476 40.8151 11.1613 37.3768 11.1613 37.3768C11.1613 37.3768 12.344 36.6354 13.0406 36.4697C13.7373 36.304 16.9284 34.0716 16.9284 34.0716L15.7592 30.7012Z" fill="#ECB4B6"/>
<path d="M16.3444 29.9243L15.1128 31.0256L16.927 33.2934L16.3444 29.9243Z" fill="#1D1B19"/>
<g opacity="0.1">
<path d="M16.3444 29.9243L15.1128 31.0256L16.927 33.2934L16.3444 29.9243Z" fill="black"/>
</g>
<path d="M19.4651 17.0267C19.4651 17.0267 16.5157 19.5552 17.7514 20.2681L15.7593 25.1934L16.445 43.2092L19.2573 38.5433L17.3358 28.4334C17.3358 28.4334 16.7927 22.4069 18.3652 20.9811L19.8738 17.9936L19.4651 17.0267Z" fill="#1D1B19"/>
<g opacity="0.1">
<path d="M19.8544 16.1236C19.8544 16.1236 16.9049 18.6521 18.1393 19.365L16.1499 24.2943L16.8357 42.3101L19.648 37.6442L17.7278 27.5303C17.7278 27.5303 17.1847 21.5038 18.7558 20.0779L20.2658 17.0905L19.8544 16.1236Z" fill="black"/>
</g>
<path d="M17.1875 14.3706C17.1875 14.3706 19.5856 17.2861 19.5204 18.9713C19.4553 20.6565 24.0573 16.0558 24.0573 16.0558C24.0573 16.0558 22.3069 13.9171 22.7605 11.6479C23.214 9.37883 17.1875 14.3706 17.1875 14.3706Z" fill="#ECB4B6"/>
<path d="M30.8622 29.0172L31.5113 34.2072V39.3266C31.5113 39.3266 30.6042 45.9371 33.4558 44.7054C36.3075 43.4738 34.2272 38.9328 34.2272 38.9328C34.2272 38.9328 34.2272 36.4044 34.6169 35.1089C35.0066 33.8134 34.4227 28.1087 34.4227 28.1087L30.8622 29.0172Z" fill="#ECB4B6"/>
<path d="M21.9827 16.7686C21.9827 16.7686 20.2405 18.4551 19.3266 17.8698L18.0827 20.9619C17.3224 22.8531 16.9774 24.8857 17.0711 26.9219L17.511 38.6083L19.4556 38.3489L20.1047 27.2668L21.077 20.5273L21.9827 16.7686Z" fill="#F2F2F2"/>
<g opacity="0.1">
<path d="M23.441 14.9857C23.441 14.9857 21.1407 16.5731 20.4929 17.9352C20.4929 17.9352 20.4278 19.4289 19.909 20.0739C19.3903 20.7189 18.8729 23.9617 18.7426 27.8508C18.6122 31.74 18.0296 36.9232 18.0296 36.9232C18.0296 36.9232 17.0573 41.9788 16.0212 42.4908C16.0212 42.4908 20.8161 38.8624 23.1491 40.094C25.482 41.3257 28.1395 44.3036 28.9176 43.8528C28.9176 43.8528 28.7302 38.1725 29.5803 35.143C29.5966 35.0859 29.6129 35.0289 29.6305 34.9732C30.5376 31.9926 29.9551 27.9119 30.9885 26.1602C30.9885 26.1602 30.9885 22.9921 30.391 20.6266C30.2362 20.0225 29.9512 19.4596 29.5559 18.9774C29.1607 18.4951 28.6647 18.1051 28.1028 17.8347L25.224 16.4441C25.224 16.4441 23.7004 16.2174 23.441 14.9857Z" fill="black"/>
</g>
<g opacity="0.1">
<path d="M23.4407 14.9857C23.4407 14.9857 21.268 16.7035 20.6216 18.0642C20.6216 18.0642 20.5564 19.5579 20.039 20.2029C19.5217 20.8479 19.0016 24.0921 18.8726 27.9798C18.7436 31.8676 18.1597 37.059 18.1597 37.059C18.1597 37.059 17.1874 42.1133 16.1499 42.6266C16.1499 42.6266 20.9461 38.9968 23.2791 40.2285C25.612 41.4601 28.2695 44.4381 29.0463 43.9872C29.0463 43.9872 28.8602 38.3083 29.7103 35.2788C29.7266 35.2204 29.7429 35.1647 29.7592 35.109C30.6676 32.1216 30.0837 28.0477 31.1171 26.2946C31.1171 26.2946 31.1171 23.1266 30.5183 20.7624C30.364 20.1581 30.0794 19.595 29.6843 19.1124C29.2893 18.6299 28.7934 18.2396 28.2315 17.9691L25.3486 16.5732C25.3486 16.5732 23.7001 16.2174 23.4407 14.9857Z" fill="black"/>
</g>
<path d="M23.4081 14.9531C23.4081 14.9531 21.2693 16.5731 20.6216 17.9405C20.6216 17.9405 20.5564 19.4343 20.039 20.0793C19.5217 20.7243 19.0016 23.9671 18.8726 27.8562C18.7436 31.7453 18.1597 36.9232 18.1597 36.9232C18.1597 36.9232 17.1874 41.9788 16.1499 42.4907C16.1499 42.4907 20.9461 38.8623 23.2791 40.094C25.612 41.3256 28.2695 44.3036 29.0463 43.8528C29.0463 43.8528 28.8602 38.1725 29.7103 35.1429L29.7592 34.9732C30.6676 31.9925 30.0837 27.9119 31.1171 26.1601C31.1171 26.1601 31.1171 22.9921 30.5183 20.6265C30.364 20.0225 30.0793 19.4595 29.6843 18.9772C29.2892 18.4948 28.7934 18.1049 28.2315 17.8346L25.3486 16.4387C25.3486 16.4387 23.8942 16.0869 23.4081 14.9531Z" fill="#1D1B19"/>
<g opacity="0.1">
<path d="M29.3385 18.7444C29.3385 18.7444 35.9164 26.2294 35.0093 29.794C35.0093 29.794 31.6389 29.0172 30.7318 30.0533C30.7318 30.0533 30.0189 27.6552 27.8801 26.2946C25.7414 24.9339 23.771 16.2173 29.3385 18.7444Z" fill="black"/>
</g>
<path d="M29.3385 18.6154C29.3385 18.6154 35.9164 26.1003 35.0093 29.6649C35.0093 29.6649 31.6389 28.8868 30.7318 29.9243C30.7318 29.9243 30.0189 27.5262 27.8801 26.1655C25.7414 24.8049 23.771 16.0869 29.3385 18.6154Z" fill="#1D1B19"/>
<g opacity="0.1">
<path d="M22.9224 13.1064C22.8206 12.5836 22.9061 12.5442 23.0202 11.9725C23.4737 9.70476 17.4526 14.6884 17.4526 14.6884C17.4526 14.6884 17.788 15.0958 18.2036 15.696C18.5105 15.7594 18.8231 15.7912 19.1365 15.791C20.7837 15.7965 22.1104 14.4059 22.9224 13.1064Z" fill="black"/>
</g>
<path d="M18.8715 15.4705C21.4124 15.4705 23.4722 13.4107 23.4722 10.8698C23.4722 8.32891 21.4124 6.2691 18.8715 6.2691C16.3306 6.2691 14.2708 8.32891 14.2708 10.8698C14.2708 13.4107 16.3306 15.4705 18.8715 15.4705Z" fill="#ECB4B6"/>
<g opacity="0.1">
<path d="M14.7378 9.6111C14.0588 9.70208 13.1965 9.4753 13.0661 8.80448C12.9018 7.95712 14.0357 7.40445 14.2109 6.55845C14.2774 6.24069 14.1987 5.90935 14.2367 5.58752C14.3127 4.93842 14.8369 4.4387 15.3706 4.06255C17.0611 2.87622 19.1177 2.32814 21.1744 2.51586C21.431 2.51863 21.6811 2.59756 21.8928 2.74264C22.1168 2.92732 22.2024 3.2247 22.3545 3.47049C22.88 4.3192 24.0573 4.42105 24.9033 4.94793C25.8933 5.56579 26.3821 6.77843 26.4269 7.9449C26.4717 9.11137 26.139 10.2534 25.8091 11.3737C25.5293 12.3243 25.236 13.302 24.6222 14.0814C24.0084 14.8609 22.9927 15.4068 22.0245 15.1678C22.4672 14.8487 22.1467 14.11 21.6673 13.8506C21.188 13.5912 20.5946 13.5464 20.1858 13.1893C19.7771 12.8321 19.6535 12.2455 19.5191 11.7132C19.3507 11.0342 19.1117 10.3552 18.6174 9.86775C17.6601 8.90904 15.9192 9.45222 14.7378 9.6111Z" fill="black"/>
</g>
<path d="M14.8683 9.54584C14.1893 9.63818 13.327 9.41005 13.1953 8.74058C13.031 7.89187 14.1649 7.34055 14.3414 6.49319C14.4066 6.17543 14.3278 5.84546 14.3658 5.52227C14.4419 4.87317 14.9674 4.37481 15.5011 3.9973C17.1913 2.81149 19.2473 2.26346 21.3036 2.45061C21.5603 2.45386 21.8103 2.53325 22.0219 2.67874C22.246 2.86206 22.3329 3.15945 22.485 3.40524C23.0091 4.25395 24.1878 4.35579 25.0338 4.88267C26.0224 5.50054 26.5126 6.71454 26.5561 7.87965C26.5995 9.04476 26.2682 10.1881 25.9396 11.3084C25.6585 12.259 25.3665 13.2381 24.7514 14.0175C24.1362 14.797 23.1218 15.3415 22.155 15.1039C22.5963 14.7861 22.2758 14.0461 21.7978 13.7867C21.3199 13.5273 20.7251 13.4839 20.315 13.1254C19.9049 12.7669 19.7827 12.1816 19.6496 11.6493C19.4812 10.9771 19.2422 10.2913 18.7479 9.80521C17.7851 8.84378 16.0483 9.38696 14.8683 9.54584Z" fill="#464353"/>
<path d="M21.6497 4.87583L22.0666 2.74115C22.0705 2.72064 22.0704 2.69955 22.0662 2.6791C22.062 2.65865 22.0537 2.63922 22.042 2.62194C22.0303 2.60467 22.0153 2.58987 21.9978 2.5784C21.9804 2.56693 21.9608 2.55902 21.9403 2.55511L20.471 2.26858C20.4506 2.26444 20.4295 2.2644 20.4091 2.26845C20.3886 2.2725 20.3692 2.28057 20.3519 2.29219C20.3346 2.30381 20.3198 2.31875 20.3083 2.33615C20.2968 2.35354 20.2889 2.37304 20.285 2.39351L19.8681 4.52684L18.4436 9.79564L21.0549 10.3076L21.6497 4.87583Z" fill="#1D1B19"/>
<g opacity="0.1">
<path d="M14.2911 6.66292C14.3869 6.51744 14.4559 6.35602 14.4948 6.18628C14.56 5.86852 14.4812 5.53719 14.5193 5.21536C14.5335 5.10067 14.5613 4.98808 14.6021 4.87994C14.4765 5.0738 14.3958 5.29324 14.3658 5.52225C14.3278 5.84544 14.4066 6.17542 14.34 6.49318C14.3287 6.55107 14.3123 6.60787 14.2911 6.66292Z" fill="black"/>
<path d="M24.9047 13.7092C24.3005 14.4778 23.3024 15.0156 22.3518 14.8078C22.3258 14.9285 22.2555 15.035 22.1549 15.1065C23.119 15.3415 24.1375 14.7969 24.7513 14.0202C24.9818 13.7225 25.176 13.3984 25.3298 13.0547C25.2082 13.2853 25.0659 13.5043 24.9047 13.7092Z" fill="black"/>
<path d="M22.3587 14.7549C22.7212 14.4181 22.4089 13.731 21.9513 13.4825C21.4719 13.2231 20.8785 13.1783 20.4684 12.8212C20.0583 12.464 19.9361 11.8774 19.803 11.3437C19.6346 10.6715 19.3956 9.98578 18.9013 9.49963C17.9386 8.53685 16.2018 9.08003 15.0217 9.23891C14.3427 9.32989 13.4804 9.10312 13.3501 8.43229C13.3192 8.27381 13.3324 8.10991 13.3881 7.95837C13.3061 8.06966 13.2469 8.19603 13.2138 8.33025C13.1807 8.46447 13.1744 8.60389 13.1953 8.74054C13.3311 9.41137 14.1907 9.63815 14.8683 9.54581C16.0483 9.38693 17.7851 8.84375 18.7479 9.80789C19.2368 10.2981 19.4812 10.9798 19.6496 11.652C19.7854 12.1843 19.9008 12.7668 20.315 13.128C20.7291 13.4893 21.3185 13.5354 21.7978 13.7894C22.1414 13.974 22.4008 14.4086 22.3587 14.7549Z" fill="black"/>
</g>
<g opacity="0.1">
<path d="M19.4879 13.2353C20.7403 13.2353 21.7556 12.22 21.7556 10.9675C21.7556 9.71508 20.7403 8.69977 19.4879 8.69977C18.2354 8.69977 17.2201 9.71508 17.2201 10.9675C17.2201 12.22 18.2354 13.2353 19.4879 13.2353Z" fill="black"/>
</g>
<path d="M19.4879 13.3005C20.7403 13.3005 21.7556 12.2852 21.7556 11.0328C21.7556 9.78033 20.7403 8.76501 19.4879 8.76501C18.2354 8.76501 17.2201 9.78033 17.2201 11.0328C17.2201 12.2852 18.2354 13.3005 19.4879 13.3005Z" fill="#1D1B19"/>
<path d="M19.4879 12.5183C20.3084 12.5183 20.9735 11.8532 20.9735 11.0327C20.9735 10.2122 20.3084 9.54712 19.4879 9.54712C18.6674 9.54712 18.0023 10.2122 18.0023 11.0327C18.0023 11.8532 18.6674 12.5183 19.4879 12.5183Z" fill="#333333"/>
<path d="M19.4885 11.4872C19.7392 11.4872 19.9425 11.2839 19.9425 11.0332C19.9425 10.7825 19.7392 10.5792 19.4885 10.5792C19.2378 10.5792 19.0345 10.7825 19.0345 11.0332C19.0345 11.2839 19.2378 11.4872 19.4885 11.4872Z" fill="#1D1B19"/>
<path opacity="0.05" d="M21.6879 4.68628L19.9073 4.33856L19.8949 4.40254L21.6754 4.75026L21.6879 4.68628Z" fill="black"/>
<path d="M6.88039 35.3641L6.44616 35.5735C6.01786 35.78 5.83805 36.2946 6.04455 36.7229L7.63271 40.017C7.83921 40.4453 8.35381 40.6251 8.78211 40.4186L9.21635 40.2092C9.64465 40.0027 9.82445 39.4881 9.61796 39.0598L8.0298 35.7658C7.8233 35.3375 7.3087 35.1576 6.88039 35.3641Z" fill="#CBDAE3"/>
<path d="M7.47854 35.0758L5.84802 35.8619C5.75006 35.9091 5.70894 36.0268 5.75617 36.1248L7.92109 40.6151C7.96832 40.7131 8.08601 40.7542 8.18397 40.707L9.81449 39.9208C9.91245 39.8736 9.95357 39.7559 9.90634 39.658L7.74141 35.1676C7.69419 35.0697 7.5765 35.0285 7.47854 35.0758Z" fill="#535461"/>
<path d="M7.68674 34.9757L6.04521 35.7672C5.93442 35.8206 5.88791 35.9537 5.94132 36.0645L8.08383 40.5084C8.13725 40.6192 8.27037 40.6657 8.38116 40.6123L10.0227 39.8208C10.1335 39.7674 10.18 39.6343 10.1266 39.5235L7.98406 35.0796C7.93065 34.9688 7.79753 34.9223 7.68674 34.9757Z" fill="#1D1B19"/>
<path d="M7.80722 35.3494L6.26355 36.0936L8.03689 39.7718L9.58056 39.0275L7.80722 35.3494Z" fill="#F2F2F2"/>
<path d="M9.148 40.0285C9.24469 39.9819 9.2726 39.8394 9.21033 39.7103C9.14807 39.5811 9.0192 39.5142 8.92251 39.5609C8.82582 39.6075 8.79791 39.75 8.86018 39.8791C8.92244 40.0083 9.0513 40.0752 9.148 40.0285Z" fill="#F2F2F2"/>
<g opacity="0.1">
<path d="M20.9736 35.9576C21.8854 35.9679 22.7876 36.1455 23.6352 36.4818C24.9931 37.0331 26.4312 36.4818 26.4312 36.4818C26.4312 36.4818 22.3356 35.2936 20.9736 35.9576Z" fill="black"/>
</g>
<path d="M67.7179 60.4468C67.7179 60.4468 68.5625 61.5508 67.3281 63.2184C66.0938 64.8859 65.0767 66.2928 65.4881 67.3316C65.4881 67.3316 67.3499 64.2355 68.8653 64.192C70.3808 64.1486 69.3854 62.3086 67.7179 60.4468Z" fill="#1D1B19"/>
<path opacity="0.1" d="M67.7179 60.4468C67.7916 60.5534 67.8497 60.6701 67.8904 60.7931C69.3692 62.5299 70.1581 64.1513 68.7364 64.188C67.4124 64.226 65.8236 66.5942 65.4434 67.1917C65.4556 67.2378 65.4706 67.2832 65.4882 67.3275C65.4882 67.3275 67.3499 64.2314 68.8654 64.188C70.3808 64.1445 69.3855 62.3086 67.7179 60.4468Z" fill="black"/>
<path d="M69.288 61.8539C69.288 62.244 69.2445 62.5593 69.1915 62.5593C69.1385 62.5593 69.0936 62.244 69.0936 61.8539C69.0936 61.4638 69.148 61.6487 69.2024 61.6487C69.2567 61.6487 69.288 61.4652 69.288 61.8539Z" fill="#FFD037"/>
<path d="M69.8274 62.3169C69.4863 62.5031 69.1886 62.6159 69.1628 62.5683C69.137 62.5208 69.3925 62.3319 69.7337 62.1456C70.0748 61.9594 69.9416 62.0954 69.9674 62.1456C69.9933 62.1959 70.1686 62.1321 69.8274 62.3169Z" fill="#FFD037"/>
<path d="M56.8949 51C56.8949 51 56.0503 52.104 57.2846 53.7716C58.519 55.4391 59.5361 56.8459 59.1246 57.8848C59.1246 57.8848 57.2629 54.7887 55.7475 54.7452C54.232 54.7017 55.2274 52.8617 56.8949 51Z" fill="#1D1B19"/>
<path opacity="0.1" d="M63.2587 60.4468C63.185 60.5534 63.1269 60.6701 63.0862 60.7931C61.6074 62.5299 60.8198 64.1513 62.2416 64.188C63.5656 64.226 65.153 66.5942 65.5332 67.1917C65.5209 67.2378 65.506 67.2832 65.4884 67.3275C65.4884 67.3275 63.6267 64.2314 62.1112 64.188C60.5958 64.1445 61.5911 62.3086 63.2587 60.4468Z" fill="black"/>
<path d="M61.6887 61.8539C61.6887 62.244 61.7322 62.5593 61.7866 62.5593C61.841 62.5593 61.8844 62.244 61.8844 61.8539C61.8844 61.4638 61.8287 61.6487 61.7757 61.6487C61.7227 61.6487 61.6887 61.4652 61.6887 61.8539Z" fill="#FFD037"/>
<path d="M61.1496 62.3169C61.4921 62.5031 61.7897 62.6159 61.8155 62.5683C61.8414 62.5208 61.5845 62.3319 61.2433 62.1456C60.9022 61.9594 61.0367 62.0954 61.0109 62.1456C60.9851 62.1959 60.8084 62.1321 61.1496 62.3169Z" fill="#FFD037"/>
<path d="M55.5938 57.7408C55.5938 57.7408 57.9552 57.6675 58.6668 57.161C59.3783 56.6545 62.2979 56.0502 62.469 56.8622C62.6401 57.6743 66.0159 60.9035 63.3517 60.9252C60.6874 60.9469 57.1581 60.5097 56.4479 60.0765C55.7377 59.6433 55.5938 57.7408 55.5938 57.7408Z" fill="#A8A8A8"/>
<path opacity="0.2" d="M69.7684 70.0882C67.1027 70.1099 63.5748 69.674 62.8646 69.2409C62.3214 68.9122 62.1082 67.7295 62.0363 67.1849H61.9575C61.9575 67.1849 62.1069 69.0861 62.8171 69.5206C63.5273 69.9551 67.0552 70.391 69.7209 70.3693C70.4895 70.3625 70.7556 70.0896 70.7407 69.6835C70.6348 69.9307 70.3401 70.0841 69.7684 70.0882Z" fill="black"/>
<path d="M57.4053 68.9204C57.6007 68.7589 57.7427 68.5421 57.8127 68.2985C57.8657 68.0527 57.7598 67.7553 57.5248 67.6671C57.2533 67.5652 56.9817 67.7485 56.7644 67.9386C56.5471 68.1288 56.3041 68.3352 56.0243 68.2958C56.1685 68.1652 56.2762 67.9995 56.3372 67.8148C56.3981 67.6301 56.4101 67.4327 56.372 67.242C56.3598 67.1631 56.3264 67.089 56.2755 67.0275C56.1289 66.8713 55.8682 66.9392 55.6876 67.0628C55.1294 67.4552 54.9733 68.2129 54.9706 68.896C54.9135 68.6502 54.9611 68.3936 54.9597 68.141C54.9583 67.8884 54.8891 67.6087 54.6759 67.4729C54.5436 67.4009 54.3945 67.3657 54.2441 67.371C53.9928 67.3615 53.7131 67.386 53.542 67.5706C53.3288 67.7988 53.3845 68.1817 53.5692 68.4316C53.7538 68.6814 54.0363 68.839 54.2957 69.0141C54.5041 69.1376 54.6815 69.3072 54.8144 69.5098C54.831 69.5375 54.8442 69.5672 54.8538 69.598H56.4276C56.7829 69.4178 57.1118 69.1898 57.4053 68.9204Z" fill="#1D1B19"/>
<path d="M46.7377 68.0391C46.7377 68.0391 45.2277 62.9155 47.0202 59.1445C47.7807 57.5671 48.0089 55.7854 47.6706 54.0672C47.5038 53.2527 47.2633 52.4551 46.9523 51.684" stroke="#535461" stroke-width="0.271588" stroke-miterlimit="10"/>
<path d="M48.078 49.3009C48.078 49.9282 46.9401 51.7452 46.9401 51.7452C46.9401 51.7452 45.8035 49.9242 45.8035 49.3009C45.8137 49.006 45.9379 48.7267 46.1501 48.5217C46.3623 48.3168 46.6457 48.2022 46.9407 48.2022C47.2357 48.2022 47.5192 48.3168 47.7314 48.5217C47.9435 48.7267 48.0678 49.006 48.078 49.3009Z" fill="#1D1B19"/>
<path d="M49.9508 52.7786C49.6086 53.3068 47.6654 54.2166 47.6654 54.2166C47.6654 54.2166 47.7007 52.0697 48.0415 51.5428C48.2054 51.2896 48.4631 51.1119 48.758 51.0488C49.0529 50.9856 49.3609 51.0422 49.614 51.2061C49.8672 51.3699 50.0449 51.6277 50.1081 51.9226C50.1713 52.2175 50.1147 52.5254 49.9508 52.7786Z" fill="#1D1B19"/>
<path d="M49.868 58.7222C49.3072 59.006 47.1698 58.8105 47.1698 58.8105C47.1698 58.8105 48.2833 56.9746 48.8441 56.6921C48.9774 56.6249 49.1227 56.5846 49.2716 56.5735C49.4204 56.5624 49.57 56.5807 49.7118 56.6274C49.8536 56.6741 49.9848 56.7483 50.098 56.8457C50.2111 56.9432 50.3039 57.0619 50.3711 57.1952C50.4384 57.3285 50.4787 57.4738 50.4898 57.6226C50.5009 57.7715 50.4826 57.9211 50.4358 58.0629C50.3891 58.2047 50.3149 58.3359 50.2175 58.449C50.1201 58.5622 50.0013 58.655 49.868 58.7222Z" fill="#1D1B19"/>
<path d="M48.7938 63.2062C48.2887 63.5796 46.1486 63.7494 46.1486 63.7494C46.1486 63.7494 46.9362 61.7519 47.4413 61.3784C47.6839 61.1983 47.988 61.122 48.2869 61.1662C48.5857 61.2104 48.8548 61.3715 49.0349 61.614C49.2149 61.8566 49.2913 62.1607 49.2471 62.4596C49.2029 62.7584 49.0418 63.0275 48.7993 63.2076L48.7938 63.2062Z" fill="#1D1B19"/>
<path d="M45.278 54.3388C45.7275 54.7761 47.8269 55.2296 47.8269 55.2296C47.8269 55.2296 47.3122 53.1452 46.8627 52.7079C46.7562 52.6018 46.6296 52.5179 46.4904 52.4611C46.3511 52.4042 46.202 52.3756 46.0516 52.3768C45.9012 52.378 45.7526 52.4091 45.6143 52.4681C45.476 52.5272 45.3508 52.6131 45.246 52.721C45.1411 52.8288 45.0587 52.9563 45.0035 53.0962C44.9483 53.2361 44.9214 53.3855 44.9244 53.5359C44.9274 53.6862 44.9602 53.8345 45.0209 53.9721C45.0816 54.1097 45.169 54.2339 45.278 54.3374V54.3388Z" fill="#1D1B19"/>
<path d="M44.0872 59.6008C44.648 59.8846 46.7854 59.689 46.7854 59.689C46.7854 59.689 45.6719 57.8531 45.1111 57.5706C44.9773 57.5034 44.8316 57.4632 44.6823 57.4523C44.5331 57.4413 44.3831 57.4599 44.241 57.507C44.0988 57.554 43.9674 57.6285 43.8541 57.7264C43.7408 57.8242 43.6479 57.9434 43.5807 58.0772C43.5134 58.2109 43.4732 58.3566 43.4623 58.5059C43.4513 58.6552 43.4699 58.8052 43.517 58.9473C43.564 59.0894 43.6386 59.2208 43.7364 59.3341C43.8342 59.4474 43.9534 59.5403 44.0872 59.6076V59.6008Z" fill="#1D1B19"/>
<path d="M43.6307 64.8669C44.1359 65.2404 46.276 65.4101 46.276 65.4101C46.276 65.4101 45.4884 63.4126 44.9833 63.0391C44.8632 62.95 44.7268 62.8853 44.5818 62.8489C44.4368 62.8124 44.2861 62.8049 44.1382 62.8267C43.9903 62.8485 43.8481 62.8993 43.7198 62.976C43.5915 63.0528 43.4795 63.154 43.3904 63.2741C43.3012 63.3941 43.2366 63.5305 43.2001 63.6755C43.1637 63.8205 43.1561 63.9712 43.178 64.1191C43.1998 64.2671 43.2505 64.4092 43.3273 64.5375C43.404 64.6658 43.5053 64.7778 43.6253 64.8669H43.6307Z" fill="#1D1B19"/>
<path d="M48.078 49.3009C48.078 49.9282 46.9401 51.7452 46.9401 51.7452C46.9401 51.7452 45.8035 49.9242 45.8035 49.3009C45.8137 49.006 45.9379 48.7267 46.1501 48.5217C46.3623 48.3168 46.6457 48.2022 46.9407 48.2022C47.2357 48.2022 47.5192 48.3168 47.7314 48.5217C47.9435 48.7267 48.0678 49.006 48.078 49.3009Z" fill="#1D1B19"/>
<path d="M49.9508 52.7786C49.6086 53.3068 47.6654 54.2166 47.6654 54.2166C47.6654 54.2166 47.7007 52.0697 48.0415 51.5428C48.2054 51.2896 48.4631 51.1119 48.758 51.0488C49.0529 50.9856 49.3609 51.0422 49.614 51.2061C49.8672 51.3699 50.0449 51.6277 50.1081 51.9226C50.1713 52.2175 50.1147 52.5254 49.9508 52.7786Z" fill="#1D1B19"/>
<path d="M49.868 58.7222C49.3072 59.006 47.1698 58.8105 47.1698 58.8105C47.1698 58.8105 48.2833 56.9746 48.8441 56.6921C48.9774 56.6249 49.1227 56.5846 49.2716 56.5735C49.4204 56.5624 49.57 56.5807 49.7118 56.6274C49.8536 56.6741 49.9848 56.7483 50.098 56.8457C50.2111 56.9432 50.3039 57.0619 50.3711 57.1952C50.4384 57.3285 50.4787 57.4738 50.4898 57.6226C50.5009 57.7715 50.4826 57.9211 50.4358 58.0629C50.3891 58.2047 50.3149 58.3359 50.2175 58.449C50.1201 58.5622 50.0013 58.655 49.868 58.7222Z" fill="#1D1B19"/>
<path d="M48.7938 63.2062C48.2887 63.5796 46.1486 63.7494 46.1486 63.7494C46.1486 63.7494 46.9362 61.7519 47.4413 61.3784C47.6839 61.1983 47.988 61.122 48.2869 61.1662C48.5857 61.2104 48.8548 61.3715 49.0349 61.614C49.2149 61.8566 49.2913 62.1607 49.2471 62.4596C49.2029 62.7584 49.0418 63.0275 48.7993 63.2076L48.7938 63.2062Z" fill="#1D1B19"/>
<path d="M45.278 54.3388C45.7275 54.7761 47.8269 55.2296 47.8269 55.2296C47.8269 55.2296 47.3122 53.1452 46.8627 52.7079C46.7562 52.6018 46.6296 52.5179 46.4904 52.4611C46.3511 52.4042 46.202 52.3756 46.0516 52.3768C45.9012 52.378 45.7526 52.4091 45.6143 52.4681C45.476 52.5272 45.3508 52.6131 45.246 52.721C45.1411 52.8288 45.0587 52.9563 45.0035 53.0962C44.9483 53.2361 44.9214 53.3855 44.9244 53.5359C44.9274 53.6862 44.9602 53.8345 45.0209 53.9721C45.0816 54.1097 45.169 54.2339 45.278 54.3374V54.3388Z" fill="#1D1B19"/>
<path d="M44.0872 59.6008C44.648 59.8846 46.7854 59.689 46.7854 59.689C46.7854 59.689 45.6719 57.8531 45.1111 57.5706C44.9773 57.5034 44.8316 57.4632 44.6823 57.4523C44.5331 57.4413 44.3831 57.4599 44.241 57.507C44.0988 57.554 43.9674 57.6285 43.8541 57.7264C43.7408 57.8242 43.6479 57.9434 43.5807 58.0772C43.5134 58.2109 43.4732 58.3566 43.4623 58.5059C43.4513 58.6552 43.4699 58.8052 43.517 58.9473C43.564 59.0894 43.6386 59.2208 43.7364 59.3341C43.8342 59.4474 43.9534 59.5403 44.0872 59.6076V59.6008Z" fill="#1D1B19"/>
<path d="M43.6307 64.8669C44.1359 65.2404 46.276 65.4101 46.276 65.4101C46.276 65.4101 45.4884 63.4126 44.9833 63.0391C44.8632 62.95 44.7268 62.8853 44.5818 62.8489C44.4368 62.8124 44.2861 62.8049 44.1382 62.8267C43.9903 62.8485 43.8481 62.8993 43.7198 62.976C43.5915 63.0528 43.4795 63.154 43.3904 63.2741C43.3012 63.3941 43.2366 63.5305 43.2001 63.6755C43.1637 63.8205 43.1561 63.9712 43.178 64.1191C43.1998 64.2671 43.2505 64.4092 43.3273 64.5375C43.404 64.6658 43.5053 64.7778 43.6253 64.8669H43.6307Z" fill="#1D1B19"/>
<path d="M43.1705 67.716C43.1705 67.716 45.0078 67.3507 45.498 66.8646C45.9883 66.3784 48.1936 65.527 48.438 66.134C48.6824 66.741 51.7459 68.8105 49.6601 69.1758C47.5743 69.5411 44.7607 69.6619 44.1483 69.4188C43.5358 69.1758 43.1705 67.716 43.1705 67.716Z" fill="#A8A8A8"/>
<path opacity="0.2" d="M49.6642 68.9488C47.5811 69.3141 44.7634 69.4349 44.151 69.1919C43.6838 69.0072 43.3606 68.1164 43.2316 67.6981L43.1705 67.7117C43.1705 67.7117 43.5385 69.1715 44.151 69.4146C44.7634 69.6576 47.5811 69.5354 49.6642 69.1715C50.2644 69.0656 50.4369 68.8184 50.3717 68.5047C50.3201 68.7139 50.115 68.87 49.6642 68.9488Z" fill="black"/>
<path opacity="0.4" d="M85.9066 9.27448H65.3093V15.2684H85.9066V9.27448Z" fill="white"/>
<path opacity="0.4" d="M85.9826 22.186H65.3854V28.1799H85.9826V22.186Z" fill="white"/>
<path opacity="0.4" d="M86.0602 35.0972H65.463V41.0912H86.0602V35.0972Z" fill="white"/>
<path opacity="0.4" d="M86.1363 48.0083H65.5391V54.0022H86.1363V48.0083Z" fill="white"/>
<path d="M92.5457 20.0173L92.5539 20.005L92.5213 19.9833L92.4548 19.9385C92.4595 19.9414 92.4636 19.945 92.467 19.9494C92.4087 19.9154 92.3398 19.9043 92.2737 19.9184C92.2077 19.9325 92.1493 19.9706 92.1099 20.0254L92.0691 20.0811L90.168 22.8105L89.8353 23.2899C88.8359 22.9884 87.2118 24.2567 86.3875 24.9832L86.2436 25.1123C86.1784 24.9656 86.1403 24.8733 86.1403 24.8733C86.0996 25.3187 84.523 25.9881 84.155 26.2312C83.9893 26.331 83.8041 26.3939 83.6119 26.4159C83.6635 24.7171 82.3517 22.93 82.3517 22.93L79.1456 18.8454C79.0273 18.1069 79.1417 17.35 79.4729 16.6794C79.4987 16.6265 79.5272 16.5735 79.5571 16.5206C79.6019 16.5206 79.6494 16.5206 79.6929 16.5206H79.7105C79.9723 16.5203 80.2336 16.4971 80.4913 16.4513C81.4351 16.284 82.2954 15.8043 82.9339 15.0895C83.5725 14.3746 83.9523 13.4659 84.0125 12.5092C84.3356 12.4264 84.61 12.1263 84.5638 11.7814C84.5759 11.7158 84.5759 11.6486 84.5638 11.5831C84.5551 11.5418 84.5428 11.5014 84.5271 11.4622C84.4361 11.23 84.2406 11.0426 84.0994 10.8308C83.9013 10.5204 83.7953 10.1602 83.7938 9.79197C83.8062 9.47036 83.8563 9.15131 83.9432 8.84141C84.0079 8.65652 84.0387 8.46148 84.0342 8.26565V8.22627C84.0367 8.17502 84.0344 8.12365 84.0274 8.07282C84.0215 8.03646 84.0129 8.0006 84.0016 7.96554C83.9225 7.74703 83.7711 7.5621 83.5725 7.44138C83.0646 7.11004 82.4142 7.10461 81.8438 6.8982C81.0155 6.59538 80.2673 5.84716 79.3995 6.02776C78.927 6.12553 78.5644 6.48811 78.1557 6.7434C77.7046 7.02551 77.1869 7.18295 76.6551 7.19966C76.2084 7.21324 75.7562 7.12634 75.3162 7.19966C75.2372 7.21377 75.1595 7.23467 75.084 7.26213C74.7099 7.13497 74.3167 7.07296 73.9216 7.07881C73.5339 7.0688 73.152 7.17419 72.8244 7.38163C72.2296 7.7958 72.0721 8.60377 72.0802 9.32212C72.0795 9.32799 72.0795 9.33392 72.0802 9.33978C72.0802 9.38731 72.0802 9.43348 72.0802 9.47557C72.0802 9.82049 72.1142 10.1708 72.121 10.5158C72.1243 10.8377 72.0785 11.1582 71.9852 11.4663C71.7136 12.3191 70.9273 12.9709 70.7698 13.8549C70.7432 14.0073 70.7341 14.1622 70.7427 14.3166C70.7318 14.8163 70.892 15.3174 71.0401 15.8022C71.3469 16.8044 71.5832 17.869 71.5914 18.9092C71.5849 19.5553 71.4564 20.1943 71.2125 20.7926C71.1391 20.9675 71.0481 21.1345 70.9409 21.291C70.9056 21.3399 70.869 21.3888 70.8296 21.435L70.8146 21.4526C70.7807 21.492 70.744 21.5286 70.7074 21.564L70.6775 21.5925C70.6424 21.6233 70.6056 21.6523 70.5675 21.6794L70.5308 21.7065C70.4799 21.7411 70.4263 21.7715 70.3706 21.7975L70.6422 21.7812C70.5592 21.8503 70.468 21.9087 70.3706 21.955L71.8127 21.8708C71.8164 21.8865 71.8187 21.9024 71.8195 21.9184C71.8154 21.9541 71.8085 21.9895 71.7991 22.0243C71.7894 22.058 71.7776 22.0911 71.7638 22.1234C71.7641 22.1279 71.7641 22.1325 71.7638 22.137C71.7346 22.2017 71.6972 22.2624 71.6525 22.3176L71.6403 22.3312C71.6181 22.3586 71.594 22.3845 71.5683 22.4086C71.5435 22.4308 71.5172 22.4512 71.4895 22.4697L71.4719 22.4833C71.4431 22.5019 71.4131 22.5186 71.3823 22.5335C71.3523 22.5473 71.3214 22.5591 71.2899 22.5688L71.2655 22.5756C71.2326 22.5848 71.199 22.5912 71.165 22.5946L71.3008 22.5797C71.3918 22.5688 71.4827 22.5566 71.5724 22.5417H71.5995C71.4837 22.6613 71.3303 22.7375 71.165 22.7576C71.4756 22.7334 71.7824 22.6728 72.0789 22.577C72.2663 23.8385 72.6832 27.6828 72.4537 28.393C72.2079 29.1494 72.8353 34.6952 72.8353 34.6952C72.8353 34.6952 72.9208 35.1203 73.0702 35.7544C72.6845 36.6656 72.2446 37.6732 72.0232 38.0779C71.5805 38.8926 71.7978 43.0289 73.3268 44.8676C73.3268 44.8676 73.9596 45.7597 73.7926 46.0897C73.6256 46.4197 73.8211 46.9832 73.8211 46.9832L74.0628 52.3389C74.0576 52.8861 74.02 53.4325 73.9501 53.9753C73.2997 54.7832 72.2934 55.9606 71.8209 56.148C71.0889 56.4454 65.63 63.0735 65.63 63.0735C65.63 63.0735 65.6735 63.1536 65.759 63.2839L65.6056 63.4618L64.5586 64.6758L64.4758 64.7722C64.2789 64.7356 62.9712 64.5007 61.931 64.4219L61.8291 64.4151V64.3975C61.4639 64.3546 61.0944 64.3642 60.7319 64.426H60.7238C60.6556 64.4394 60.5929 64.4725 60.5432 64.521C60.1888 64.9542 60 71.7724 60 71.7724C60 71.7724 60.3775 75.1781 61.5508 75.3737C61.6121 75.3949 61.6761 75.4073 61.7409 75.4104H61.7422C61.7639 75.4117 61.7857 75.4117 61.8074 75.4104C62.6493 75.3492 63.0296 74.8672 63.2047 74.5345C63.256 74.4344 63.2952 74.3287 63.3215 74.2194C63.3215 74.2194 63.1857 73.6111 63.5537 72.7732C63.9217 71.9354 64.6048 70.4729 64.6048 70.4729C64.6048 70.4729 65.8527 69.1597 65.63 68.5229L65.7495 68.3504C66.2194 67.6823 67.1659 66.3624 67.9317 65.4811L68.0811 65.3114C68.3601 65.4301 68.6523 65.5149 68.9515 65.5639C68.9515 65.5639 70.1248 65.1049 70.5621 64.0702C70.7481 63.6329 71.476 62.8589 72.2513 62.112C72.235 62.2397 72.2269 62.3117 72.2269 62.3117L72.1997 68.8298C72.4518 69.0033 72.7207 69.1512 73.0023 69.2711C73.0023 69.3241 73.0023 69.3784 73.0023 69.4341C73.0081 70.3633 72.9523 71.2919 72.8353 72.2138L72.8108 72.3577C72.7144 72.2884 72.6316 72.2654 72.5772 72.3197C72.3369 72.5628 72.1875 74.1189 72.1699 74.8359C72.1699 74.8495 72.1699 74.8631 72.1699 74.8767C72.1536 75.1727 72.0748 75.5258 72.0748 75.8408C72.0667 76.2984 72.2106 76.6841 72.9507 76.7167C73.87 76.7547 77.8243 76.8158 79.9414 76.8525C81.0823 76.8754 82.1926 76.4819 83.0646 75.7458C83.453 75.4131 83.7504 75.0437 83.7599 74.6947C83.7789 74.4231 83.6336 74.1692 83.2289 73.9465C83.227 73.9558 83.2243 73.9649 83.2208 73.9736C83.1678 73.9451 83.1108 73.9166 83.0483 73.8895L81.0114 73.5703L77.5487 71.8037C77.5487 71.8037 77.5283 70.7336 77.1128 70.9115C76.9889 70.9372 76.8701 70.9831 76.7611 71.0473C76.7407 71.0066 76.719 70.9658 76.6986 70.9224C76.4167 70.3621 76.2702 69.7435 76.2708 69.1163C76.2708 69.0593 76.2708 69.0022 76.279 68.9438C76.3813 68.8521 76.4775 68.7536 76.5669 68.6492C76.5669 68.6492 76.5397 66.2144 76.8113 65.754C77.0829 65.2937 77.9316 60.64 77.9316 60.64C77.9316 60.64 77.9588 59.775 78.5047 59.2604C79.0505 58.7457 78.8591 57.2588 78.8591 57.2588C78.8591 57.2588 79.6222 56.8514 79.868 55.5274C80.1138 54.2034 80.9055 51.3069 80.9055 51.3069C80.9055 51.3069 82.5432 47.0321 82.4345 44.3271C82.3259 41.6221 82.5975 40.2153 82.5975 40.2153L82.9383 33.9294V33.8316C83.0741 33.9361 83.1651 34.019 83.1651 34.019C83.1651 34.019 83.1651 33.9945 83.1651 33.9511L83.2439 34.019C83.2439 34.019 83.4177 31.1673 83.3593 30.0361C84.3098 29.7116 85.7683 29.1779 85.8498 28.9063C85.9733 28.499 87.6151 27.2225 87.6151 27.2225C87.58 27.2158 87.5465 27.2029 87.5159 27.1845C87.5675 27.1614 87.6205 27.1329 87.6775 27.103C88.7503 26.5272 90.7451 24.8475 90.4097 23.8195L92.5906 20.6827C92.6598 20.5831 92.693 20.463 92.6849 20.3421C92.6767 20.2212 92.6277 20.1066 92.5457 20.0173ZM74.7785 16.9673C74.7253 16.968 74.6722 16.9721 74.6196 16.9796C74.5229 16.4198 74.3868 15.8675 74.2122 15.3269C73.9596 14.4769 73.688 13.6214 73.6473 12.7373C73.6473 12.6993 73.6473 12.6599 73.6473 12.6219C73.6516 12.3888 73.6822 12.157 73.7383 11.9307C73.7899 12.0271 73.8483 12.1222 73.908 12.2118C74.257 12.7387 74.6644 13.2398 74.879 13.8332C74.9767 14.1048 75.0338 14.3995 75.1831 14.648C75.3325 14.8965 75.6082 15.1069 75.8988 15.0621C75.9988 15.0462 76.0926 15.0035 76.1704 14.9386C75.7805 15.6628 75.3138 16.3429 74.7785 16.9673Z" fill="url(#paint4_linear_66_117)"/>
<path d="M87.2948 27.7874C87.1375 27.8852 86.9627 27.9516 86.7801 27.983C86.1012 28.002 85.558 26.1837 85.558 26.1837C85.558 26.1837 85.7495 25.9895 86.0536 25.7179C86.9539 24.9181 88.8442 23.4393 89.7296 24.2663C90.7195 25.1937 88.4518 27.1614 87.2948 27.7874Z" fill="#ECB4B6"/>
<path d="M77.0869 71.1532L74.6086 73.8284C74.6086 73.8284 72.3151 73.8542 72.7646 72.5886C72.8528 72.3146 72.9165 72.0333 72.9547 71.748C73.0683 70.8473 73.1223 69.94 73.1163 69.0321C73.1163 68.4387 73.1068 68.0232 73.1068 68.0232C73.1068 68.0232 76.7175 66.4412 76.3482 68.0884C76.3005 68.2983 76.275 68.5127 76.2721 68.728C76.2696 69.3378 76.4091 69.9399 76.6795 70.4865C76.7933 70.7214 76.9298 70.9447 77.0869 71.1532Z" fill="#ECB4B6"/>
<path opacity="0.1" d="M77.0869 71.1532L74.6086 73.8283C74.6086 73.8283 72.3151 73.8541 72.7646 72.5885C72.8528 72.3146 72.9165 72.0333 72.9547 71.748C73.2819 72.0006 73.7531 72.7474 73.7531 72.7474C73.7531 72.7474 75.3338 73.2091 75.7683 71.8254C76.0127 71.0514 76.3957 70.6684 76.6876 70.481C76.7986 70.7175 76.9323 70.9426 77.0869 71.1532Z" fill="black"/>
<path d="M82.8352 75.1823C81.996 75.902 80.9218 76.2886 79.8165 76.2687C77.7728 76.2388 73.9529 76.179 73.0662 76.1424C71.8793 76.0908 72.2731 75.0777 72.3111 74.377C72.3111 74.3526 72.3111 74.3295 72.3111 74.3064C72.3247 73.6085 72.47 72.093 72.7022 71.8621C72.9344 71.6313 73.7492 72.9159 73.7492 72.9159C73.7492 72.9159 75.3298 73.3776 75.7644 71.9939C76.1989 70.6101 77.087 70.4675 77.087 70.4675C77.4944 70.2937 77.5093 71.3366 77.5093 71.3366L80.8567 73.0639L82.8202 73.3735C82.8841 73.4021 82.9411 73.4319 82.9954 73.4604C83.8767 73.952 83.4856 74.6201 82.8352 75.1823Z" fill="#1D1B19"/>
<path opacity="0.25" d="M76.6498 72.5237C76.7301 72.5237 76.7953 72.4585 76.7953 72.3782C76.7953 72.2979 76.7301 72.2328 76.6498 72.2328C76.5695 72.2328 76.5044 72.2979 76.5044 72.3782C76.5044 72.4585 76.5695 72.5237 76.6498 72.5237Z" fill="white"/>
<path opacity="0.25" d="M78.0079 73.1958C78.0882 73.1958 78.1533 73.1307 78.1533 73.0504C78.1533 72.9701 78.0882 72.905 78.0079 72.905C77.9275 72.905 77.8624 72.9701 77.8624 73.0504C77.8624 73.1307 77.9275 73.1958 78.0079 73.1958Z" fill="white"/>
<path opacity="0.25" d="M78.7073 73.5095C78.7876 73.5095 78.8528 73.4444 78.8528 73.3641C78.8528 73.2838 78.7876 73.2187 78.7073 73.2187C78.627 73.2187 78.5619 73.2838 78.5619 73.3641C78.5619 73.4444 78.627 73.5095 78.7073 73.5095Z" fill="white"/>
<path opacity="0.25" d="M80.1561 74.0664C80.2364 74.0664 80.3015 74.0013 80.3015 73.9209C80.3015 73.8406 80.2364 73.7755 80.1561 73.7755C80.0757 73.7755 80.0106 73.8406 80.0106 73.9209C80.0106 74.0013 80.0757 74.0664 80.1561 74.0664Z" fill="white"/>
<path opacity="0.25" d="M79.4187 73.8286C79.4991 73.8286 79.5642 73.7635 79.5642 73.6832C79.5642 73.6029 79.4991 73.5378 79.4187 73.5378C79.3384 73.5378 79.2733 73.6029 79.2733 73.6832C79.2733 73.7635 79.3384 73.8286 79.4187 73.8286Z" fill="white"/>
<path d="M82.8352 75.1822C81.996 75.9019 80.9218 76.2885 79.8165 76.2686C77.7728 76.2387 73.9529 76.179 73.0662 76.1423C71.8793 76.0907 72.2731 75.0777 72.3111 74.377L79.7608 74.8387C79.7608 74.8387 82.8121 74.3756 82.9941 73.4672C83.8767 73.9519 83.4856 74.6201 82.8352 75.1822Z" fill="#1D1B19"/>
<path opacity="0.25" d="M82.8352 75.1523C81.9949 75.8692 80.9208 76.2528 79.8165 76.2305C77.7728 76.2006 73.9529 76.1423 73.0662 76.1042C71.8793 76.0526 72.2731 75.0396 72.3111 74.3389L79.7608 74.7993C79.7608 74.7993 82.8121 74.3362 82.9941 73.4277C83.8767 73.922 83.4856 74.5901 82.8352 75.1523Z" fill="white"/>
<path d="M68.9668 64.4314C68.6924 64.6545 68.4417 64.9053 68.2186 65.1796C67.4798 66.0392 66.5659 67.3252 66.1124 67.9756C65.9372 68.2282 65.8299 68.383 65.8299 68.383L64.8414 68.2364C64.8414 68.2364 63.774 66.6068 63.7876 66.5634C63.8012 66.5199 64.6309 64.7709 64.6309 64.7709L64.9527 64.3948L65.9657 63.2106L66.4234 62.6756C66.4234 62.6756 69.863 63.785 68.9668 64.4314Z" fill="#ECB4B6"/>
<path opacity="0.1" d="M66.1124 67.9757C65.9372 68.2282 65.8299 68.383 65.8299 68.383L64.8414 68.2364C64.8414 68.2364 63.774 66.6069 63.7876 66.5634C63.8012 66.5199 64.6309 64.7709 64.6309 64.7709L64.9527 64.3948L65.0586 64.4138H65.3085C64.4258 65.3358 65.375 67.3659 65.375 67.3659C65.375 67.3659 65.7851 67.4067 66.1124 67.9757Z" fill="black"/>
<path d="M65.0014 70.0439C65.0014 70.0439 64.3415 71.467 63.9857 72.2845C63.6299 73.1019 63.7616 73.6954 63.7616 73.6954C63.7364 73.8014 63.6986 73.9039 63.6489 74.0009C63.5222 74.2521 63.3298 74.4641 63.0921 74.6145C62.8544 74.765 62.5803 74.8481 62.2991 74.855C62.2779 74.8571 62.2565 74.8571 62.2353 74.855C61.0389 74.8238 60.656 71.3353 60.656 71.3353C60.656 71.3353 60.8393 64.6936 61.1829 64.274C61.2298 64.2258 61.2905 64.1935 61.3567 64.1816C61.7061 64.1213 62.0624 64.1117 62.4145 64.1531C63.5009 64.2305 64.8996 64.498 64.8996 64.498H65.1494C64.2668 65.4201 65.2146 67.4502 65.2146 67.4502C65.2146 67.4502 65.6369 67.4896 65.9669 68.083C66.2969 68.6764 65.0014 70.0439 65.0014 70.0439Z" fill="#1D1B19"/>
<path opacity="0.25" d="M63.5552 68.2136C63.6355 68.2136 63.7007 68.1485 63.7007 68.0682C63.7007 67.9878 63.6355 67.9227 63.5552 67.9227C63.4749 67.9227 63.4098 67.9878 63.4098 68.0682C63.4098 68.1485 63.4749 68.2136 63.5552 68.2136Z" fill="white"/>
<path opacity="0.25" d="M63.4833 69.3637C63.5636 69.3637 63.6288 69.2986 63.6288 69.2183C63.6288 69.138 63.5636 69.0729 63.4833 69.0729C63.403 69.0729 63.3379 69.138 63.3379 69.2183C63.3379 69.2986 63.403 69.3637 63.4833 69.3637Z" fill="white"/>
<path d="M63.5551 73.9764C63.3922 74.2982 63.0119 74.7694 62.2053 74.8305H62.1497C60.9479 74.7993 60.5649 71.3108 60.5649 71.3108C60.5649 71.3108 60.7496 64.6691 61.0918 64.2495C61.1389 64.2016 61.1996 64.1694 61.2656 64.1571C61.6155 64.0968 61.9722 64.0872 62.3248 64.1286C62.3045 65.3209 62.2488 69.096 62.3248 69.4708C62.4009 69.8455 63.0771 72.9715 63.5551 73.9764Z" fill="#1D1B19"/>
<path opacity="0.25" d="M63.6433 74.0009C63.5168 74.2522 63.3244 74.4643 63.0866 74.6148C62.8489 74.7652 62.5748 74.8482 62.2935 74.8551C62.2723 74.8571 62.251 74.8571 62.2297 74.8551C61.0279 74.8238 60.6464 71.3353 60.6464 71.3353C60.6464 71.3353 60.831 64.6936 61.1732 64.274C61.2203 64.2261 61.281 64.1939 61.3471 64.1816C61.6969 64.1213 62.0537 64.1117 62.4063 64.1531C62.3859 65.3454 62.3289 69.1205 62.4063 69.4953C62.4837 69.8701 63.164 72.996 63.6433 74.0009Z" fill="white"/>
<path d="M62.1497 74.8305C60.9479 74.7993 60.5649 71.3107 60.5649 71.3107C60.5649 71.3107 60.7496 64.669 61.0918 64.2494C61.1389 64.2016 61.1996 64.1693 61.2656 64.1571C61.5182 64.5319 61.7396 65.3616 61.5372 67.188C61.1624 70.6481 61.6146 70.8653 61.6146 70.8653C61.6146 70.8653 62.17 73.7985 62.1497 74.8305Z" fill="#1D1B19"/>
<path opacity="0.1" d="M62.1332 74.8304C60.9273 74.7992 60.5485 71.3079 60.5485 71.3079C60.5485 71.3079 60.7331 64.6662 61.0753 64.2466C61.1224 64.1987 61.1831 64.1665 61.2492 64.1543C61.5017 64.5291 61.7217 65.3588 61.5207 67.1852C61.146 70.6453 61.5981 70.8625 61.5981 70.8625C61.5981 70.8625 62.1603 73.7984 62.1332 74.8304Z" fill="black"/>
<path opacity="0.1" d="M87.2948 27.7874C87.1375 27.8852 86.9627 27.9516 86.7801 27.9829C86.1012 28.002 85.558 26.1837 85.558 26.1837C85.558 26.1837 85.7495 25.9895 86.0536 25.7179C86.2641 26.2149 86.8711 27.5416 87.2948 27.7874Z" fill="black"/>
<path d="M82.9832 27.1329C82.9832 27.1329 83.5373 27.1723 83.8931 26.9346C84.2488 26.697 85.7711 26.0452 85.8105 25.6107C85.8105 25.6107 86.7203 27.8241 87.2336 27.9029C87.2336 27.9029 85.6529 29.1494 85.5334 29.5446C85.4139 29.9398 82.3314 30.9025 82.3314 30.9025L82.9832 27.1329Z" fill="#FF748E"/>
<path d="M82.9832 27.1329C82.9832 27.1329 83.5373 27.1723 83.8931 26.9346C84.2488 26.697 85.7711 26.0452 85.8105 25.6107C85.8105 25.6107 86.7203 27.8241 87.2336 27.9029C87.2336 27.9029 85.6529 29.1494 85.5334 29.5446C85.4139 29.9398 82.3314 30.9025 82.3314 30.9025L82.9832 27.1329Z" fill="#1D1B19"/>
<path opacity="0.1" d="M68.9668 64.4315C68.6924 64.6546 68.4416 64.9053 68.2185 65.1797C67.0276 64.68 66.2577 63.6616 65.9657 63.2134L66.4233 62.6784C66.4233 62.6784 69.863 63.7851 68.9668 64.4315Z" fill="black"/>
<path d="M74.6074 53.2148C74.6074 53.2148 72.6737 55.7949 71.9676 56.0882C71.2615 56.3816 65.9927 62.8358 65.9927 62.8358C65.9927 62.8358 67.1225 64.9257 69.211 65.2611C69.211 65.2611 70.3449 64.813 70.7658 63.8122C71.1868 62.8114 74.507 59.9896 74.507 59.9896L74.6074 53.2148Z" fill="#5E5A6B"/>
<path opacity="0.1" d="M74.6074 53.2148C74.6074 53.2148 72.6737 55.7949 71.9676 56.0882C71.2615 56.3816 65.9927 62.8358 65.9927 62.8358C65.9927 62.8358 67.1225 64.9257 69.211 65.2611C69.211 65.2611 70.3449 64.813 70.7658 63.8122C71.1868 62.8114 74.507 59.9896 74.507 59.9896L74.6074 53.2148Z" fill="black"/>
<path opacity="0.1" d="M68.749 61.8676C69.3358 61.9299 69.9276 61.9299 70.5143 61.8676C71.5572 61.7685 70.7656 62.4013 68.749 61.8676Z" fill="black"/>
<path opacity="0.1" d="M68.2754 62.5399C68.2754 62.5399 69.6591 63.3302 70.1928 62.9351C70.7265 62.5399 69.6781 63.3167 68.2754 62.5399Z" fill="black"/>
<path opacity="0.1" d="M76.3469 68.0953C76.3001 68.303 76.2751 68.5151 76.2722 68.728C75.2035 69.6976 73.9175 69.3989 73.1136 69.0444C73.1136 68.451 73.1041 68.0355 73.1041 68.0355C73.1041 68.0355 76.7162 66.4481 76.3469 68.0953Z" fill="black"/>
<path d="M82.7521 33.7094L82.7127 34.4386L82.3828 40.563C82.3828 40.563 82.1112 41.9331 82.2239 44.5689C82.3366 47.2046 80.7532 51.3694 80.7532 51.3694C80.7532 51.3694 79.9887 54.1912 79.7511 55.4826C79.5134 56.774 78.7761 57.1692 78.7761 57.1692C78.7761 57.1692 78.9607 58.6195 78.4339 59.1192C77.907 59.6189 77.8812 60.4636 77.8812 60.4636C77.8812 60.4636 77.0664 64.9977 76.7948 65.4458C76.5232 65.894 76.5572 68.2663 76.5572 68.2663C74.8435 70.2964 72.3394 68.451 72.3394 68.451L72.3652 62.0985C72.3652 62.0985 73.0781 56.2472 73.605 55.4297C74.1319 54.6122 74.1319 52.3716 74.1319 52.3716L73.897 47.153C73.897 47.153 73.7096 46.599 73.8712 46.2826C74.0328 45.9662 73.4203 45.0998 73.4203 45.0998C71.9443 43.3073 71.7338 39.2743 72.1615 38.4826C72.5893 37.6909 73.8712 34.5296 73.8712 34.5296L75.6365 33.5003L78.8236 33.5954L82.7521 33.7094Z" fill="#5E5A6B"/>
<path opacity="0.1" d="M75.2539 64.7737C75.2539 64.7737 75.6708 66.2172 76.0062 66.3747C76.3416 66.5322 75.2539 64.7737 75.2539 64.7737Z" fill="black"/>
<path opacity="0.1" d="M75.8268 59.9694C75.8268 59.9694 76.9131 60.8222 77.3599 60.8195C77.8067 60.8168 75.8268 59.9694 75.8268 59.9694Z" fill="black"/>
<path d="M82.3313 24.2852V26.0247L81.1824 25.5305L80.0377 25.0362L77.5472 22.5851C77.5472 22.5851 75.5769 21.3045 74.5217 20.1408C73.9188 19.4754 73.6146 18.8467 74.147 18.5113C74.4032 18.3425 74.6349 18.1392 74.8354 17.907C75.3659 17.2824 75.8271 16.6022 76.211 15.8782L76.2599 15.79C76.7732 14.8475 77.1113 14.0436 77.1113 14.0436C77.1113 14.0436 78.5562 14.5067 79.4864 15.1626C79.5611 15.2142 79.6317 15.2685 79.6996 15.3242C80.2183 15.7492 80.475 16.2408 79.9983 16.7324C79.875 16.8598 79.7611 16.9959 79.6575 17.1397C79.5803 17.246 79.51 17.3572 79.447 17.4724C79.4185 17.524 79.3913 17.5756 79.3655 17.6259C79.0456 18.2805 78.9351 19.0178 79.0491 19.7375L82.3313 24.2852Z" fill="#ECB4B6"/>
<path opacity="0.1" d="M79.9984 16.7338C79.8751 16.8612 79.7612 16.9973 79.6575 17.1411C79.5803 17.2474 79.51 17.3586 79.447 17.4738C79.4185 17.5254 79.3914 17.577 79.3656 17.6273C78.7562 17.5936 78.1619 17.4257 77.625 17.1355C77.0881 16.8454 76.622 16.4402 76.2599 15.9489C76.2418 15.9262 76.2255 15.9032 76.2111 15.8796L76.2599 15.7914C76.7732 14.8489 77.1114 14.045 77.1114 14.045C77.1114 14.045 78.5562 14.5081 79.4864 15.164C79.5611 15.2156 79.6317 15.2699 79.6996 15.3256C80.2183 15.7506 80.4818 16.2422 79.9984 16.7338Z" fill="black"/>
<path d="M83.7504 13.3239C83.7513 13.8693 83.6446 14.4096 83.4363 14.9136C83.228 15.4177 82.9222 15.8756 82.5366 16.2613C82.1509 16.647 81.6929 16.9527 81.1889 17.161C80.6848 17.3693 80.1446 17.4761 79.5992 17.4752H79.5816C79.5368 17.4752 79.4906 17.4752 79.4458 17.4752C78.6513 17.4459 77.882 17.1891 77.2292 16.7353C76.5764 16.2815 76.0677 15.6498 75.7635 14.9153C75.4592 14.1808 75.3723 13.3744 75.5131 12.5919C75.6538 11.8095 76.0162 11.0839 76.5573 10.5014C77.0984 9.91897 77.7954 9.50413 78.5653 9.30622C79.3353 9.10831 80.1459 9.13567 80.9008 9.38503C81.6557 9.63439 82.3231 10.0953 82.8237 10.7129C83.3243 11.3305 83.637 12.0789 83.7246 12.869C83.7414 13.0201 83.75 13.172 83.7504 13.3239Z" fill="#ECB4B6"/>
<path opacity="0.1" d="M80.1438 23.5873C80.1438 23.5873 82.235 24.7673 81.6986 23.772L78.9705 19.7389L82.068 23.719C82.068 23.719 84.0452 26.4349 82.9642 28.3048C82.9642 28.3048 82.8053 29.861 82.99 30.229C83.1747 30.597 82.9371 34.5269 82.9371 34.5269C82.9371 34.5269 82.1997 33.8479 81.8045 33.9728C81.4094 34.0977 78.6147 34.3422 78.6147 34.3422L80.1438 23.5873Z" fill="black"/>
<path opacity="0.1" d="M82.7524 33.7094L82.713 34.4386C82.4631 34.2566 82.1141 34.0529 81.8833 34.1303C81.4881 34.2661 78.6935 34.4997 78.6935 34.4997L78.8225 33.5926L82.7524 33.7094Z" fill="black"/>
<path d="M80.2225 23.5873C80.2225 23.5873 82.3137 24.7673 81.7774 23.772L79.0493 19.7389L82.1467 23.719C82.1467 23.719 84.1239 26.4349 83.043 28.3048C83.043 28.3048 82.8854 29.861 83.0688 30.229C83.2521 30.597 83.0172 34.5269 83.0172 34.5269C83.0172 34.5269 82.2784 33.8479 81.8833 33.9728C81.4881 34.0977 78.6935 34.3422 78.6935 34.3422L80.2225 23.5873Z" fill="#464353"/>
<path opacity="0.1" d="M81.34 25.6092C81.2178 26.8761 80.6964 28.3835 80.6964 28.3835C80.6964 28.3835 80.3283 32.1273 79.8531 33.2354C79.3778 34.3435 79.5896 35.8711 79.3262 38.6916C79.2311 39.706 78.9039 40.4039 78.4625 40.8751C77.7374 41.6492 76.6972 41.8108 75.8825 41.7632C75.8159 41.7632 75.7467 41.7551 75.6883 41.7483C74.3697 41.6125 73.1082 35.2641 73.1082 35.2641C73.1082 35.2641 72.5025 29.8609 72.7388 29.1222C72.9751 28.3835 72.5025 24.1671 72.3437 23.2437C72.2432 22.6597 72.546 21.7038 72.7796 21.0832C72.9154 20.7233 73.0294 20.4762 73.0294 20.4762C73.0294 20.4762 73.4775 19.0531 74.2149 18.3157C74.3166 18.2112 74.4382 18.1283 74.5726 18.0719C74.707 18.0154 74.8513 17.9866 74.9971 17.9871C75.344 17.9998 75.6811 18.1053 75.9734 18.2926L76.0074 18.3157C76.0074 18.3157 80.805 23.2179 81.2531 24.3517C81.3753 24.6668 81.3875 25.1203 81.34 25.6092Z" fill="black"/>
<path d="M81.1825 25.5306C81.0602 26.7975 80.5388 28.3048 80.5388 28.3048C80.5388 28.3048 80.1694 32.0487 79.6955 33.1554C79.2216 34.2621 79.4239 35.7912 79.1686 38.6116C79.0736 39.6273 78.7463 40.3253 78.305 40.7965C77.5785 41.5706 76.5397 41.7321 75.7249 41.6846L75.5321 41.6697C74.2135 41.5339 72.952 35.1855 72.952 35.1855C72.952 35.1855 72.3463 29.7809 72.584 29.0436C72.8216 28.3062 72.3463 24.0884 72.1888 23.165C72.0883 22.5811 72.3898 21.6251 72.6247 21.0032C72.7605 20.6447 72.8732 20.3976 72.8732 20.3976C72.8732 20.3976 73.3213 18.9744 74.0601 18.2357C74.1617 18.1317 74.2832 18.0491 74.4173 17.9929C74.5514 17.9367 74.6955 17.908 74.8409 17.9085C75.1882 17.9213 75.5258 18.0268 75.8186 18.214L75.8525 18.2357C75.8525 18.2357 80.6501 23.1392 81.0969 24.2718C81.2164 24.5949 81.23 25.0417 81.1825 25.5306Z" fill="#1D1B19"/>
<path opacity="0.1" d="M75.8077 44.8281C75.8077 44.8281 74.7214 45.7963 74.3439 45.7569C73.9664 45.7175 75.8077 44.8281 75.8077 44.8281Z" fill="black"/>
<path opacity="0.1" d="M76.0969 45.7571C76.0969 45.7571 74.9508 46.2894 74.6031 46.3682C74.2555 46.4469 75.6542 45.6199 76.0969 45.7571Z" fill="black"/>
<path opacity="0.1" d="M80.5323 31.2054C80.5323 31.2054 82.2325 31.2244 82.4891 31.7581C82.7458 32.2918 81.0864 30.9881 80.5323 31.2054Z" fill="black"/>
<path opacity="0.1" d="M80.2943 32.1342C80.2943 32.1342 81.5993 32.4058 81.9945 32.7276C82.3896 33.0495 80.2943 32.1342 80.2943 32.1342Z" fill="black"/>
<path opacity="0.1" d="M78.1016 28.9119C78.1016 28.9119 77.9441 34.2689 77.3601 34.9615C76.7762 35.654 78.1016 28.9119 78.1016 28.9119Z" fill="black"/>
<path opacity="0.1" d="M76.6376 44.0555C76.6376 44.0555 75.5513 48.7797 77.7362 49.0798C79.9211 49.3799 79.2476 43.7024 79.2476 43.7024L76.6376 44.0555Z" fill="black"/>
<path d="M76.5588 43.9755C76.5588 43.9755 75.4725 48.7011 77.656 48.9999C79.8396 49.2986 79.1688 43.6224 79.1688 43.6224L76.5588 43.9755Z" fill="#ECB4B6"/>
<path opacity="0.1" d="M78.4271 24.1414C78.3144 21.302 74.3411 20.7153 73.4136 23.4013C73.4068 23.419 73.4014 23.4366 73.3946 23.4556C72.7889 25.2739 73.0524 29.8787 73.0524 29.8787C73.0524 29.8787 73.1311 32.9707 73.4217 33.9987C73.7123 35.0267 74.5285 37.9788 74.5285 38.4541C74.5285 38.9294 75.2862 40.7477 75.6053 40.8794C75.9244 41.0111 76.086 42.0391 76.1634 42.2237C76.2408 42.4084 76.4798 44.8038 76.4798 44.8038C76.4798 44.8038 79.4578 44.6191 79.5107 44.1452C79.5637 43.6713 78.8521 41.3533 78.8521 41.3533C78.8521 41.3533 78.3266 40.4027 78.2601 39.6396C78.1935 38.8764 77.7712 38.5329 77.8527 38.01C77.9342 37.4872 77.6151 37.2184 77.6151 36.8762C77.6151 36.534 77.3788 35.6106 77.3788 35.6106C77.3788 35.6106 76.8777 35.2154 76.9565 34.7415C77.0352 34.2676 76.2449 33.3184 76.4554 32.9762C76.6659 32.634 76.7188 31.7907 76.7188 31.7907C76.7188 31.7907 76.9823 27.9885 77.1669 26.9659C77.3516 25.9434 78.4325 24.2786 78.4325 24.2786C78.4325 24.2786 78.4298 24.2256 78.4271 24.1414Z" fill="black"/>
<path opacity="0.1" d="M78.3089 40.7964C77.5824 41.5704 76.5435 41.732 75.7288 41.6845C75.6351 41.3246 75.4966 40.8833 75.2942 40.7991C74.9751 40.6633 74.2174 38.8491 74.2174 38.3752C74.2174 37.9012 73.4026 34.9477 73.1107 33.9198C72.8187 32.8918 72.7413 29.7998 72.7413 29.7998C72.7413 29.7998 72.4697 25.195 73.0794 23.3726C73.0794 23.3536 73.0903 23.336 73.0971 23.317C74.0246 20.631 77.9979 21.219 78.1106 24.0584C78.1106 24.1426 78.1106 24.1942 78.1106 24.1942C78.1106 24.1942 77.0243 25.855 76.8464 26.8829C76.6685 27.9109 76.3969 31.7063 76.3969 31.7063C76.3969 31.7063 76.3439 32.551 76.1334 32.8932C75.923 33.2354 76.7133 34.1846 76.6345 34.6585C76.5558 35.1324 77.0555 35.5276 77.0555 35.5276C77.0555 35.5276 77.2931 36.4496 77.2931 36.7932C77.2931 37.1367 77.6095 37.3988 77.5308 37.927C77.452 38.4553 77.8743 38.7961 77.9382 39.5566C77.9978 39.9863 78.1229 40.4044 78.3089 40.7964Z" fill="black"/>
<path d="M78.2684 24.0626C78.1557 21.2231 74.1837 20.6351 73.2562 23.3211C73.2562 23.3401 73.2427 23.3578 73.2372 23.3768C72.6316 25.1951 72.895 29.7999 72.895 29.7999C72.895 29.7999 72.9738 32.8919 73.263 33.9198C73.5523 34.9478 74.3711 37.9027 74.3711 38.3752C74.3711 38.8478 75.1275 40.6675 75.448 40.7992C75.7684 40.9309 75.9287 41.9602 76.0061 42.1435C76.0835 42.3269 76.3211 44.7236 76.3211 44.7236C76.3211 44.7236 79.3004 44.5389 79.352 44.0637C79.4036 43.5884 78.6934 41.2704 78.6934 41.2704C78.6934 41.2704 78.1693 40.3198 78.1014 39.5567C78.0335 38.7935 77.6125 38.4499 77.694 37.9271C77.7755 37.4043 77.4563 37.1355 77.4563 36.7933C77.4563 36.451 77.2187 35.5276 77.2187 35.5276C77.2187 35.5276 76.7176 35.1325 76.7977 34.6586C76.8779 34.1846 76.0848 33.2341 76.2967 32.8932C76.5085 32.5524 76.5601 31.7078 76.5601 31.7078C76.5601 31.7078 76.8235 27.9055 77.0082 26.883C77.1929 25.8605 78.2738 24.1943 78.2738 24.1943C78.2738 24.1943 78.2725 24.1468 78.2684 24.0626Z" fill="#1D1B19"/>
<path opacity="0.1" d="M73.3755 31.3629C73.4542 31.2842 74.9575 29.6234 75.4314 30.2168C75.9053 30.8102 73.3755 31.3629 73.3755 31.3629Z" fill="black"/>
<path opacity="0.1" d="M73.5142 32.6475C73.5726 32.5891 75.016 32.5294 75.3718 31.7187C75.7276 30.908 73.5142 32.6475 73.5142 32.6475Z" fill="black"/>
<g opacity="0.1">
<path d="M71.8699 18.0773C71.9057 18.1189 71.9325 18.1675 71.9487 18.22C71.9783 18.1294 71.9866 18.0332 71.973 17.9389C71.9593 17.8446 71.924 17.7548 71.8699 17.6763C71.7992 17.5948 71.6959 17.5472 71.632 17.4616C71.632 17.4548 71.6239 17.4466 71.6184 17.4385C71.5826 17.503 71.565 17.5759 71.5674 17.6497C71.5697 17.7234 71.5921 17.7951 71.632 17.8571C71.6959 17.9414 71.7992 17.9903 71.8699 18.0773Z" fill="black"/>
<path d="M73.8809 12.9478C73.8809 12.7971 73.8877 12.6477 73.8809 12.4997C73.8524 11.9565 73.7532 11.4134 73.7302 10.8702C73.6989 11.5301 73.8456 12.2281 73.8809 12.8949V12.9478Z" fill="black"/>
</g>
<path d="M87.8704 26.6577L87.9519 26.7148C87.8807 26.6653 87.8319 26.5898 87.8162 26.5046C87.8004 26.4194 87.8189 26.3315 87.8677 26.2598L91.5341 20.9422C91.5584 20.9069 91.5895 20.8768 91.6255 20.8536C91.6614 20.8304 91.7016 20.8144 91.7437 20.8068C91.7858 20.7991 91.8291 20.7997 91.8709 20.8088C91.9128 20.8178 91.9524 20.835 91.9877 20.8593L91.9075 20.8023C91.9644 20.8412 92.013 20.891 92.0506 20.9487C92.0882 21.0064 92.114 21.071 92.1266 21.1387C92.1392 21.2065 92.1384 21.276 92.1241 21.3434C92.1098 21.4108 92.0823 21.4747 92.0433 21.5315L88.605 26.5233C88.566 26.5808 88.5159 26.6299 88.4576 26.6678C88.3994 26.7058 88.3342 26.7318 88.2659 26.7443C88.1975 26.7568 88.1273 26.7556 88.0594 26.7407C87.9915 26.7259 87.9273 26.6976 87.8704 26.6577Z" fill="#464353"/>
<path d="M91.9188 20.8023L92.006 20.8624L87.9726 26.7179L87.8854 26.6578C87.8338 26.6223 87.7984 26.5677 87.787 26.506C87.7757 26.4444 87.7893 26.3808 87.8248 26.3292L91.5871 20.8674C91.6043 20.841 91.6267 20.8184 91.6528 20.8008C91.6789 20.7833 91.7083 20.7711 91.7392 20.765C91.7701 20.759 91.8019 20.7591 91.8328 20.7656C91.8636 20.772 91.8928 20.7845 91.9188 20.8023Z" fill="#9F9EFF"/>
<path d="M91.4954 21.6217L91.4786 21.6101C91.4681 21.6028 91.4537 21.6055 91.4465 21.616L91.1435 22.0559C91.1362 22.0664 91.1389 22.0808 91.1494 22.088L91.1662 22.0996C91.1767 22.1068 91.1911 22.1042 91.1983 22.0937L91.5013 21.6538C91.5086 21.6433 91.5059 21.6289 91.4954 21.6217Z" fill="#464353"/>
<path opacity="0.1" d="M84.272 12.8162C84.2136 12.5324 83.9814 12.3246 83.8212 12.0829C83.422 11.4813 83.4844 10.6856 83.6704 9.98758C83.739 9.79716 83.7681 9.59481 83.756 9.3928C83.7294 9.26517 83.6765 9.14446 83.6008 9.03833C83.525 8.93221 83.4281 8.84298 83.316 8.7763C82.8258 8.45447 82.1971 8.45039 81.6471 8.2467C80.8473 7.95067 80.1235 7.22146 79.2897 7.39799C78.8335 7.4944 78.4831 7.84747 78.0893 8.09597C77.654 8.3703 77.1533 8.52358 76.639 8.54002C76.2072 8.5536 75.7713 8.4694 75.3463 8.54002C75.2699 8.55368 75.1949 8.57413 75.1222 8.60113C74.7608 8.4781 74.381 8.41748 73.9992 8.42188C73.6246 8.41323 73.2559 8.51628 72.94 8.71791C72.3656 9.12529 72.2121 9.90611 72.2217 10.6082C72.2312 11.3102 72.3493 12.034 72.1334 12.7021C71.8618 13.5345 71.1122 14.1687 70.9601 15.0296C70.8569 15.6149 71.0498 16.2056 71.2222 16.7746C71.7165 18.4041 72.0438 20.2129 71.3879 21.7894C71.2209 22.1887 70.971 22.5838 70.5731 22.7672L71.9664 22.6843C71.9814 22.7828 71.9769 22.8832 71.9531 22.9799C71.9293 23.0766 71.8867 23.1677 71.8276 23.2479C71.7686 23.3281 71.6944 23.3959 71.6091 23.4474C71.5239 23.4989 71.4293 23.5331 71.3308 23.548C71.6822 23.5258 72.0276 23.4465 72.3534 23.313C72.5161 23.2452 72.6598 23.1388 72.7722 23.003C72.8845 22.8672 72.9622 22.7061 72.9984 22.5336C73.0256 22.3448 72.9848 22.1479 73.0378 21.966C73.1288 21.6523 73.4452 21.4798 73.71 21.2789C74.3889 20.7493 74.7121 19.8571 74.7379 18.9948C74.7637 18.1325 74.5356 17.2852 74.2912 16.4568C74.0467 15.6285 73.7846 14.796 73.748 13.9338C73.7321 13.6184 73.7614 13.3025 73.8349 12.9954C73.8851 13.0891 73.9408 13.1815 73.9992 13.267C74.336 13.7803 74.7298 14.2678 74.9362 14.8463C75.0091 15.1205 75.1073 15.3874 75.2295 15.6434C75.3734 15.8878 75.6369 16.0902 75.9207 16.0508C76.2045 16.0114 76.4109 15.7045 76.5046 15.4166C76.5983 15.1287 76.6404 14.8151 76.8128 14.5693C77.1442 14.1049 77.8069 14.0628 78.3772 14.0804C79.579 14.1184 81.237 14.3004 82.1794 13.377C82.3587 13.2018 82.451 12.9343 82.7226 12.9995C82.9725 13.0579 83.1123 13.4653 83.3799 13.5562C83.8171 13.707 84.3711 13.2996 84.272 12.8162Z" fill="black"/>
<path d="M84.272 12.6627C84.2136 12.3789 83.9814 12.1697 83.8212 11.9294C83.422 11.3265 83.4844 10.5307 83.6704 9.83407C83.739 9.64366 83.7681 9.44131 83.756 9.2393C83.7294 9.11167 83.6765 8.99096 83.6008 8.88483C83.525 8.7787 83.4281 8.68947 83.316 8.62279C82.8258 8.30096 82.1971 8.29553 81.6471 8.0932C80.8473 7.79717 80.1235 7.06795 79.2897 7.24449C78.8335 7.3409 78.4831 7.69396 78.0893 7.94247C77.6537 8.21619 77.1532 8.36943 76.639 8.38651C76.2072 8.40009 75.7713 8.3159 75.3463 8.38651C75.2699 8.40018 75.1949 8.42062 75.1222 8.44762C74.7608 8.32459 74.381 8.26397 73.9992 8.26837C73.6248 8.26013 73.2563 8.36265 72.94 8.56305C72.3656 8.97043 72.2121 9.7526 72.2217 10.4547C72.2312 11.1567 72.3493 11.8805 72.1334 12.5486C71.8618 13.381 71.1122 14.0152 70.9601 14.8761C70.8569 15.4614 71.0498 16.0521 71.2222 16.6211C71.7165 18.2506 72.0438 20.0594 71.3879 21.6346C71.2209 22.0352 70.971 22.4303 70.5731 22.6136L71.9664 22.5308C71.9814 22.6292 71.9769 22.7295 71.9531 22.8262C71.9292 22.9228 71.8866 23.0137 71.8275 23.0938C71.7685 23.1739 71.6942 23.2416 71.609 23.293C71.5238 23.3443 71.4293 23.3783 71.3308 23.3931C71.6822 23.3721 72.0277 23.2932 72.3534 23.1595C72.5161 23.0917 72.6598 22.9853 72.7722 22.8495C72.8845 22.7137 72.9622 22.5526 72.9984 22.3801C73.0256 22.1913 72.9848 21.9944 73.0378 21.8125C73.1288 21.4988 73.4452 21.3263 73.71 21.1253C74.3889 20.5958 74.7121 19.7036 74.7379 18.8413C74.7637 17.979 74.5356 17.1303 74.2912 16.3033C74.0467 15.4763 73.7846 14.6425 73.748 13.7802C73.7321 13.4649 73.7614 13.149 73.8349 12.8419C73.8851 12.9356 73.9408 13.028 73.9992 13.1135C74.336 13.6268 74.7298 14.1143 74.9362 14.6928C75.0088 14.9666 75.107 15.233 75.2295 15.4885C75.3734 15.733 75.6369 15.9367 75.9207 15.8959C76.2045 15.8552 76.4109 15.551 76.5046 15.2631C76.5983 14.9752 76.6404 14.6616 76.8128 14.4158C77.1442 13.9514 77.8069 13.9093 78.3772 13.9269C79.579 13.9649 81.237 14.1469 82.1794 13.2235C82.3587 13.0483 82.451 12.7808 82.7226 12.846C82.9725 12.9044 83.1123 13.3118 83.3799 13.4027C83.8171 13.5535 84.3711 13.1461 84.272 12.6627Z" fill="#464353"/>
<g opacity="0.1">
<path d="M72.2258 10.1871C72.2258 10.2777 72.2258 10.3684 72.2258 10.459C72.2258 10.7526 72.2503 11.0502 72.2612 11.3452C72.2734 10.9646 72.2394 10.5745 72.2258 10.1871Z" fill="black"/>
<path d="M71.7504 19.4224C71.7871 18.336 71.5399 17.2157 71.2222 16.1633C71.0945 15.7864 71.0036 15.3981 70.9506 15.0037C70.8922 15.5468 71.0674 16.09 71.2222 16.625C71.5165 17.5312 71.694 18.4713 71.7504 19.4224Z" fill="black"/>
<path d="M83.5345 10.6C83.5569 10.3412 83.6024 10.0849 83.6703 9.8341C83.7388 9.64369 83.7679 9.44134 83.7559 9.23933C83.7501 9.20383 83.7415 9.16885 83.7301 9.13477C83.7138 9.21488 83.692 9.29364 83.6703 9.37241C83.555 9.77079 83.5091 10.186 83.5345 10.6Z" fill="black"/>
<path d="M71.9702 22.0758L71.1282 22.1247C70.9922 22.336 70.8017 22.5067 70.5769 22.619L71.8914 22.5416C71.9703 22.4 71.9981 22.2355 71.9702 22.0758Z" fill="black"/>
<path d="M84.2352 12.5432C84.1633 12.7009 84.0376 12.8279 83.8806 12.9013C83.7236 12.9747 83.5455 12.9898 83.3784 12.9438C83.1068 12.8528 82.971 12.4454 82.7211 12.3871C82.4496 12.3219 82.3572 12.5907 82.178 12.7659C81.2369 13.688 79.5789 13.506 78.3757 13.468C77.8054 13.4503 77.1427 13.4924 76.8114 13.9568C76.6349 14.2026 76.5955 14.5177 76.5031 14.8055C76.4108 15.0934 76.218 15.3922 75.9192 15.4383C75.6205 15.4845 75.376 15.2795 75.228 15.031C75.1061 14.7753 75.0079 14.5089 74.9347 14.2352C74.7283 13.6567 74.3345 13.1679 73.9977 12.6546C73.9393 12.5677 73.8837 12.4753 73.8334 12.383C73.7599 12.6905 73.7306 13.0069 73.7465 13.3227C73.7465 13.3444 73.7465 13.3675 73.7465 13.3892C73.7573 13.2061 73.7845 13.0243 73.828 12.846C73.8782 12.9397 73.9339 13.0321 73.9923 13.1176C74.3291 13.6309 74.7229 14.1184 74.9293 14.6969C75.0019 14.9707 75.1002 15.2372 75.2226 15.4927C75.3665 15.7371 75.63 15.9408 75.9138 15.9C76.1976 15.8593 76.404 15.5551 76.4977 15.2672C76.5914 14.9794 76.6335 14.6657 76.806 14.4199C77.1373 13.9555 77.8 13.9134 78.3703 13.931C79.5721 13.9691 81.2301 14.151 82.1725 13.2276C82.3518 13.0524 82.4441 12.7849 82.7157 12.8501C82.9656 12.9085 83.1054 13.3159 83.373 13.4069C83.8116 13.5549 84.3656 13.1475 84.2665 12.6641C84.2588 12.6231 84.2483 12.5828 84.2352 12.5432Z" fill="black"/>
<path d="M73.7139 20.6692C73.4559 20.8702 73.1328 21.0426 73.0418 21.3563C72.9888 21.5396 73.0295 21.7352 73.0024 21.9239C72.9664 22.0967 72.8888 22.258 72.7764 22.3941C72.664 22.5301 72.5202 22.6368 72.3574 22.7047C72.2289 22.7637 72.0946 22.8092 71.9568 22.8405C71.9191 22.9842 71.8401 23.1137 71.7295 23.2129C71.619 23.3121 71.4817 23.3767 71.3348 23.3986C71.6862 23.3776 72.0317 23.2987 72.3574 23.1651C72.52 23.0972 72.6638 22.9908 72.7761 22.855C72.8885 22.7192 72.9662 22.5581 73.0024 22.3856C73.0295 22.1969 72.9888 22 73.0418 21.818C73.1328 21.5043 73.4491 21.3319 73.7139 21.1309C74.3929 20.6013 74.7161 19.7091 74.7419 18.8468C74.7419 18.7178 74.7419 18.5902 74.7419 18.4625C74.693 19.299 74.3712 20.1559 73.7139 20.6692Z" fill="black"/>
</g>
</g>
<defs>
<linearGradient id="paint0_linear_66_117" x1="0.552904" y1="38.9818" x2="38.4001" y2="38.9818" gradientUnits="userSpaceOnUse">
<stop stop-color="#808080" stop-opacity="0.25"/>
<stop offset="0.54" stop-color="#808080" stop-opacity="0.12"/>
<stop offset="1" stop-color="#808080" stop-opacity="0.1"/>
</linearGradient>
<linearGradient id="paint1_linear_66_117" x1="15.9316" y1="41.9967" x2="16.1015" y2="41.9967" gradientUnits="userSpaceOnUse">
<stop stop-color="#808080" stop-opacity="0.25"/>
<stop offset="0.54" stop-color="#808080" stop-opacity="0.12"/>
<stop offset="1" stop-color="#808080" stop-opacity="0.1"/>
</linearGradient>
<linearGradient id="paint2_linear_66_117" x1="16.0647" y1="42.1281" x2="16.2346" y2="42.1281" gradientUnits="userSpaceOnUse">
<stop stop-color="#808080" stop-opacity="0.25"/>
<stop offset="0.54" stop-color="#808080" stop-opacity="0.12"/>
<stop offset="1" stop-color="#808080" stop-opacity="0.1"/>
</linearGradient>
<linearGradient id="paint3_linear_66_117" x1="16.0647" y1="41.9967" x2="16.2346" y2="41.9967" gradientUnits="userSpaceOnUse">
<stop stop-color="#808080" stop-opacity="0.25"/>
<stop offset="0.54" stop-color="#808080" stop-opacity="0.12"/>
<stop offset="1" stop-color="#808080" stop-opacity="0.1"/>
</linearGradient>
<linearGradient id="paint4_linear_66_117" x1="76.3401" y1="76.8579" x2="76.3401" y2="5.99517" gradientUnits="userSpaceOnUse">
<stop stop-color="#808080" stop-opacity="0.25"/>
<stop offset="0.54" stop-color="#808080" stop-opacity="0.12"/>
<stop offset="1" stop-color="#808080" stop-opacity="0.1"/>
</linearGradient>
<clipPath id="clip0_66_117">
<rect width="94" height="78" fill="white"/>
</clipPath>
</defs>
</svg>
